<svg id="Layer_1" data-name="Layer 1" xmlns="http://www.w3.org/2000/svg" viewBox="0 0 451.11 386.42"><defs><style>.cls-1{fill:#010101;}.cls-2{fill:none;}.cls-3{fill:#332623;}.cls-4{fill:#ffde17;}</style></defs><path class="cls-1" d="M374.28,513.12h-177a19,19,0,0,1-13-5.16c-52.83-49.5-86.49-134.68-90-227.85a13.5,13.5,0,0,1,3.61-9.8,12.74,12.74,0,0,1,9.41-4.14h357a12.76,12.76,0,0,1,9.41,4.14,13.5,13.5,0,0,1,3.61,9.8c-3.54,93.17-37.2,178.35-90,227.85A19,19,0,0,1,374.28,513.12Zm-267-239.71a5.9,5.9,0,0,0-4.36,1.92,6.23,6.23,0,0,0-1.66,4.49C104.73,371.1,137.53,454.38,189,502.6a12.06,12.06,0,0,0,8.29,3.28h177a12.08,12.08,0,0,0,8.29-3.28c51.46-48.22,84.26-131.5,87.74-222.78a6.19,6.19,0,0,0-1.67-4.49,5.87,5.87,0,0,0-4.35-1.92Z" transform="translate(-94.25 -126.7)"/><path class="cls-1" d="M521.75,407.11H448.14v-7.24h73.61c9.15,0,16.6-7.69,16.6-17.15V313.87c0-9.46-7.45-17.15-16.6-17.15H475.7v-7.24h46.05c13,0,23.61,10.94,23.61,24.39v68.85C545.36,396.17,534.77,407.11,521.75,407.11Z" transform="translate(-94.25 -126.7)"/><path class="cls-1" d="M514.34,378.69H458.93v-7.24h51.9V325.14H471.71V317.9h42.63a3.56,3.56,0,0,1,3.5,3.62v53.55A3.56,3.56,0,0,1,514.34,378.69Z" transform="translate(-94.25 -126.7)"/><rect class="cls-1" x="395.76" y="248.37" width="6.35" height="28.42"/><rect class="cls-1" x="385.06" y="248.37" width="6.35" height="28.42"/><rect class="cls-1" x="374.36" y="248.37" width="6.35" height="28.42"/><rect class="cls-1" x="363.66" y="248.37" width="6.35" height="28.42"/><path class="cls-1" d="M411.4,473l-32.13-56.34L283.9,353.72a3.68,3.68,0,0,1-1.6-2.62,3.72,3.72,0,0,1,.94-2.93l74.42-80.88,5.09,5L291.25,350l92.5,61a3.48,3.48,0,0,1,1.13,1.22l32.56,57.09Z" transform="translate(-94.25 -126.7)"/><path class="cls-1" d="M253.4,513.12a3.49,3.49,0,0,1-2.28-.86L114.58,392a3.71,3.71,0,0,1-1-4.2L163.7,268.35a3.57,3.57,0,0,1,2.22-2,3.43,3.43,0,0,1,2.93.44l118.86,80.88a3.66,3.66,0,0,1,1.52,3.68,3.55,3.55,0,0,1-2.69,2.88l-162.06,37,129.1,113.67,125.64-93.35,82-143.61,6,3.68L384.88,415.89a3.43,3.43,0,0,1-1,1.1L255.44,512.44A3.38,3.38,0,0,1,253.4,513.12ZM168.48,275.18l-45.69,109L276.93,349Z" transform="translate(-94.25 -126.7)"/><polygon class="cls-1" points="162.58 383.55 155.72 382.06 188.11 223.22 194.97 224.71 162.58 383.55"/><polygon class="cls-1" points="160.4 368.32 38.03 261.3 42.56 255.77 164.93 362.79 160.4 368.32"/><polygon class="cls-1" points="163.87 351.3 56.21 257.14 60.74 251.62 168.4 345.78 163.87 351.3"/><polygon class="cls-1" points="167.34 334.29 74.38 252.99 78.91 247.46 171.87 328.76 167.34 334.29"/><polygon class="cls-1" points="170.81 317.27 92.56 248.83 97.09 243.31 175.34 311.74 170.81 317.27"/><polygon class="cls-1" points="174.28 300.25 110.74 244.68 115.27 239.15 178.81 294.73 174.28 300.25"/><polygon class="cls-1" points="177.75 283.24 128.91 240.53 133.44 235 182.28 277.71 177.75 283.24"/><polygon class="cls-1" points="181.22 266.22 147.09 236.37 151.62 230.84 185.75 260.69 181.22 266.22"/><polygon class="cls-1" points="184.69 249.2 165.26 232.21 169.79 226.69 189.22 243.68 184.69 249.2"/><rect class="cls-2" x="13.94" y="175.86" width="6.45" height="6.67"/><rect class="cls-2" x="20.4" y="155.86" width="6.45" height="6.67"/><rect class="cls-2" x="13.94" y="162.52" width="6.45" height="6.67"/><rect class="cls-2" x="39.76" y="175.86" width="6.45" height="6.67"/><rect class="cls-2" x="39.76" y="162.52" width="6.45" height="6.67"/><rect class="cls-2" x="33.3" y="155.86" width="6.45" height="6.67"/><rect class="cls-2" x="20.4" y="182.52" width="6.45" height="6.67"/><rect class="cls-2" x="33.3" y="209.19" width="6.45" height="6.67"/><rect class="cls-2" x="33.3" y="195.86" width="6.45" height="6.67"/><rect class="cls-2" x="20.4" y="195.86" width="6.45" height="6.67"/><rect class="cls-2" x="33.3" y="182.52" width="6.45" height="6.67"/><rect class="cls-2" x="20.4" y="209.19" width="6.45" height="6.67"/><rect class="cls-2" x="26.85" y="215.86" width="6.45" height="6.67"/><polygon class="cls-2" points="72.68 143.09 72.03 143.08 72.03 144.62 72.68 143.09"/><rect class="cls-2" x="26.85" y="229.19" width="6.45" height="6.67"/><rect class="cls-2" x="46.21" y="155.86" width="6.45" height="6.67"/><rect class="cls-2" x="39.76" y="189.19" width="6.45" height="6.67"/><path class="cls-2" d="M110,269.22h4.65A12.4,12.4,0,0,0,110,269.22Z" transform="translate(-94.25 -126.7)"/><rect class="cls-2" x="26.85" y="162.52" width="6.45" height="6.67"/><rect class="cls-2" x="20.4" y="169.19" width="6.45" height="6.67"/><rect class="cls-2" x="26.85" y="175.86" width="6.45" height="6.67"/><rect class="cls-2" x="33.3" y="169.19" width="6.45" height="6.67"/><rect class="cls-2" x="26.85" y="189.19" width="6.45" height="6.67"/><rect class="cls-2" x="26.85" y="202.52" width="6.45" height="6.67"/><path class="cls-2" d="M108.19,275.89v-6.2a13.1,13.1,0,0,0-6.46,4.93v1.27Z" transform="translate(-94.25 -126.7)"/><rect class="cls-2" x="7.49" y="155.86" width="6.45" height="6.67"/><path class="cls-2" d="M107.31,349.23c.29,1.32.58,2.63.88,3.93v-3.93Z" transform="translate(-94.25 -126.7)"/><path class="cls-2" d="M108.19,335.89h-3.74c.46,2.23.93,4.46,1.41,6.67h2.33Z" transform="translate(-94.25 -126.7)"/><rect class="cls-2" x="13.94" y="189.19" width="6.45" height="6.67"/><path class="cls-2" d="M100.63,315.89q.53,3,1.1,6.14v-6.14Z" transform="translate(-94.25 -126.7)"/><polygon class="cls-2" points="39.76 202.52 39.76 209.19 44.98 209.19 46.21 206.24 46.21 202.52 39.76 202.52"/><path class="cls-2" d="M108.19,322.56h-6.36q.61,3.3,1.28,6.66h5.08Z" transform="translate(-94.25 -126.7)"/><rect class="cls-2" x="13.94" y="202.52" width="6.45" height="6.67"/><rect class="cls-2" x="7.49" y="169.19" width="6.45" height="6.67"/><path class="cls-2" d="M116.84,389.23v0l0,0Z" transform="translate(-94.25 -126.7)"/><path class="cls-2" d="M121.1,379.15v-3.26h-6.46v4.6l.51,2.07h4.52Z" transform="translate(-94.25 -126.7)"/><path class="cls-2" d="M114.64,369.23h-2.73c.57,2.38,1.11,4.61,1.6,6.66h1.13Z" transform="translate(-94.25 -126.7)"/><rect class="cls-2" x="7.49" y="182.52" width="6.45" height="6.67"/><path class="cls-2" d="M114.64,355.89H108.8c.52,2.29,1,4.52,1.54,6.67h4.3Z" transform="translate(-94.25 -126.7)"/><polygon class="cls-2" points="65.58 155.86 67.33 155.86 70.12 149.19 65.58 149.19 65.58 155.86"/><polygon class="cls-2" points="26.85 149.19 26.85 142.59 20.39 142.52 20.39 149.19 26.85 149.19"/><path class="cls-2" d="M101.73,289.22H97.54c0,2,.13,4.2.34,6.67h3.85Z" transform="translate(-94.25 -126.7)"/><rect class="cls-2" x="13.94" y="215.86" width="6.45" height="6.67"/><polygon class="cls-2" points="33.3 237.04 33.8 235.86 33.3 235.86 33.3 237.04"/><polygon class="cls-2" points="39.76 221.64 42.18 215.86 39.76 215.86 39.76 221.64"/><polygon class="cls-2" points="33.3 229.19 36.59 229.19 39.39 222.53 33.3 222.53 33.3 229.19"/><path class="cls-2" d="M101.73,275.89h-.84a25,25,0,0,0-2.63,6.67h3.47Z" transform="translate(-94.25 -126.7)"/><polygon class="cls-2" points="26.85 249.19 28.21 249.19 31.01 242.53 26.85 242.53 26.85 249.19"/><rect class="cls-2" x="20.4" y="235.86" width="6.45" height="6.67"/><polygon class="cls-2" points="52.67 149.19 52.67 142.87 46.21 142.8 46.21 149.19 52.67 149.19"/><path class="cls-2" d="M101.73,302.56H98.61c.27,2.12.58,4.35.94,6.66h2.18Z" transform="translate(-94.25 -126.7)"/><polygon class="cls-2" points="65.58 149.19 65.58 143.01 59.12 142.94 59.12 149.19 65.58 149.19"/><polygon class="cls-2" points="39.76 149.19 39.76 142.73 33.3 142.66 33.3 149.19 39.76 149.19"/><rect class="cls-2" x="20.4" y="222.52" width="6.45" height="6.67"/><polygon class="cls-2" points="46.21 202.52 47.77 202.52 50.56 195.86 46.21 195.86 46.21 202.52"/><rect class="cls-2" x="46.21" y="182.52" width="6.45" height="6.67"/><polygon class="cls-2" points="52.67 190.83 53.36 189.19 52.67 189.19 52.67 190.83"/><polygon class="cls-2" points="52.67 182.52 56.15 182.52 58.94 175.86 52.67 175.86 52.67 182.52"/><rect class="cls-2" x="39.76" y="149.19" width="6.45" height="6.67"/><rect class="cls-2" x="26.85" y="149.19" width="6.45" height="6.67"/><rect class="cls-2" x="52.67" y="149.19" width="6.45" height="6.67"/><rect class="cls-2" x="52.67" y="162.52" width="6.45" height="6.67"/><polygon class="cls-2" points="59.12 175.43 61.74 169.19 59.12 169.19 59.12 175.43"/><rect class="cls-2" x="46.21" y="169.19" width="6.45" height="6.67"/><polygon class="cls-2" points="59.12 155.86 59.12 162.52 64.53 162.52 65.58 160.03 65.58 155.86 59.12 155.86"/><rect class="cls-2" x="13.94" y="149.19" width="6.45" height="6.67"/><path class="cls-3" d="M101.73,274.62c-.28.4-.57.82-.84,1.27h.84Z" transform="translate(-94.25 -126.7)"/><path class="cls-1" d="M114.64,275.89v-6.67H110a13.32,13.32,0,0,0-1.8.47v6.2Z" transform="translate(-94.25 -126.7)"/><polygon class="cls-1" points="33.3 149.19 33.3 142.66 26.85 142.59 26.85 149.19 33.3 149.19"/><polygon class="cls-1" points="46.21 149.19 46.21 142.8 39.76 142.73 39.76 149.19 46.21 149.19"/><polygon class="cls-1" points="59.12 149.19 59.12 142.94 52.67 142.87 52.67 149.19 59.12 149.19"/><polygon class="cls-1" points="70.12 149.19 72.03 144.62 72.03 143.08 65.58 143.01 65.58 149.19 70.12 149.19"/><rect class="cls-1" x="7.49" y="149.19" width="6.45" height="6.67"/><rect class="cls-1" x="20.4" y="149.19" width="6.45" height="6.67"/><rect class="cls-1" x="33.3" y="149.19" width="6.45" height="6.67"/><rect class="cls-1" x="46.21" y="149.19" width="6.45" height="6.67"/><rect class="cls-1" x="59.12" y="149.19" width="6.45" height="6.67"/><path class="cls-1" d="M101.73,282.56H98.26c-.1.41-.2.82-.29,1.25a27,27,0,0,0-.43,5.41h4.19Z" transform="translate(-94.25 -126.7)"/><rect class="cls-1" x="13.94" y="155.86" width="6.45" height="6.67"/><rect class="cls-1" x="26.85" y="155.86" width="6.45" height="6.67"/><rect class="cls-1" x="39.76" y="155.86" width="6.45" height="6.67"/><rect class="cls-1" x="52.67" y="155.86" width="6.45" height="6.67"/><polygon class="cls-1" points="65.58 160.03 67.33 155.86 65.58 155.86 65.58 160.03"/><rect class="cls-1" x="7.49" y="162.52" width="6.45" height="6.67"/><rect class="cls-1" x="20.4" y="162.52" width="6.45" height="6.67"/><rect class="cls-1" x="33.3" y="162.52" width="6.45" height="6.67"/><rect class="cls-1" x="46.21" y="162.52" width="6.45" height="6.67"/><polygon class="cls-1" points="59.12 169.19 61.74 169.19 64.53 162.52 59.12 162.52 59.12 169.19"/><path class="cls-1" d="M101.73,295.89H97.88c.18,2.07.42,4.3.73,6.67h3.12Z" transform="translate(-94.25 -126.7)"/><rect class="cls-1" x="13.94" y="169.19" width="6.45" height="6.67"/><rect class="cls-1" x="26.85" y="169.19" width="6.45" height="6.67"/><rect class="cls-1" x="39.76" y="169.19" width="6.45" height="6.67"/><polygon class="cls-1" points="52.67 169.19 52.67 175.86 58.94 175.86 59.12 175.43 59.12 169.19 52.67 169.19"/><rect class="cls-1" x="7.49" y="175.86" width="6.45" height="6.67"/><rect class="cls-1" x="20.4" y="175.86" width="6.45" height="6.67"/><rect class="cls-1" x="33.3" y="175.86" width="6.45" height="6.67"/><rect class="cls-1" x="46.21" y="175.86" width="6.45" height="6.67"/><path class="cls-1" d="M101.73,309.22H99.55c.33,2.16.69,4.39,1.08,6.67h1.1Z" transform="translate(-94.25 -126.7)"/><rect class="cls-1" x="13.94" y="182.52" width="6.45" height="6.67"/><rect class="cls-1" x="26.85" y="182.52" width="6.45" height="6.67"/><rect class="cls-1" x="39.76" y="182.52" width="6.45" height="6.67"/><polygon class="cls-1" points="52.67 189.19 53.36 189.19 56.15 182.52 52.67 182.52 52.67 189.19"/><path class="cls-1" d="M108.19,315.89h-6.46V322c0,.17.07.35.1.53h6.36Z" transform="translate(-94.25 -126.7)"/><rect class="cls-1" x="20.4" y="189.19" width="6.45" height="6.67"/><rect class="cls-1" x="33.3" y="189.19" width="6.45" height="6.67"/><polygon class="cls-1" points="46.21 189.19 46.21 195.86 50.56 195.86 52.67 190.83 52.67 189.19 46.21 189.19"/><rect class="cls-1" x="13.94" y="195.86" width="6.45" height="6.67"/><rect class="cls-1" x="26.85" y="195.86" width="6.45" height="6.67"/><rect class="cls-1" x="39.76" y="195.86" width="6.45" height="6.67"/><path class="cls-1" d="M108.19,329.22h-5.08c.43,2.22.88,4.45,1.34,6.67h3.74Z" transform="translate(-94.25 -126.7)"/><rect class="cls-1" x="20.4" y="202.52" width="6.45" height="6.67"/><rect class="cls-1" x="33.3" y="202.52" width="6.45" height="6.67"/><polygon class="cls-1" points="46.21 206.24 47.77 202.52 46.21 202.52 46.21 206.24"/><rect class="cls-1" x="13.94" y="209.19" width="6.45" height="6.67"/><rect class="cls-1" x="26.85" y="209.19" width="6.45" height="6.67"/><polygon class="cls-1" points="39.76 215.86 42.18 215.86 44.98 209.19 39.76 209.19 39.76 215.86"/><path class="cls-1" d="M108.19,342.56h-2.33c.48,2.24,1,4.47,1.45,6.67h.88Z" transform="translate(-94.25 -126.7)"/><rect class="cls-1" x="20.4" y="215.86" width="6.45" height="6.67"/><polygon class="cls-1" points="33.3 215.86 33.3 222.53 39.39 222.53 39.76 221.64 39.76 215.86 33.3 215.86"/><path class="cls-1" d="M114.64,349.23h-6.45v3.93c.2.92.41,1.83.61,2.73h5.84Z" transform="translate(-94.25 -126.7)"/><rect class="cls-1" x="26.85" y="222.52" width="6.45" height="6.67"/><rect class="cls-1" x="20.4" y="229.19" width="6.45" height="6.67"/><polygon class="cls-1" points="33.3 235.86 33.8 235.86 36.59 229.19 33.3 229.19 33.3 235.86"/><path class="cls-1" d="M114.64,362.56h-4.3c.54,2.32,1.07,4.55,1.57,6.67h2.73Z" transform="translate(-94.25 -126.7)"/><polygon class="cls-1" points="26.85 235.86 26.85 242.53 31.01 242.53 33.3 237.04 33.3 235.86 26.85 235.86"/><rect class="cls-1" x="20.4" y="242.53" width="6.45" height="6.67"/><path class="cls-1" d="M113.51,375.89c.41,1.66.79,3.2,1.13,4.6v-4.6Z" transform="translate(-94.25 -126.7)"/><polygon class="cls-1" points="26.85 252.45 28.21 249.19 26.85 249.19 26.85 252.45"/><path class="cls-1" d="M119.67,382.56h-4.52c1,3.89,1.59,6.31,1.69,6.67h0Z" transform="translate(-94.25 -126.7)"/><polygon class="cls-1" points="183.29 218.6 181.59 216.94 248.88 143.03 250.59 144.68 183.29 218.6"/><polygon class="cls-1" points="175.31 213.31 173.61 211.65 236.17 142.94 237.87 144.59 175.31 213.31"/><polygon class="cls-1" points="167.33 208.02 165.63 206.37 223.46 142.85 225.16 144.5 167.33 208.02"/><polygon class="cls-1" points="159.35 202.73 157.65 201.08 210.74 142.76 212.44 144.42 159.35 202.73"/><polygon class="cls-1" points="151.37 197.44 149.67 195.79 198.03 142.68 199.73 144.33 151.37 197.44"/><polygon class="cls-1" points="143.39 192.15 141.69 190.5 185.31 142.59 187.01 144.24 143.39 192.15"/><polygon class="cls-1" points="135.41 186.87 133.71 185.21 172.6 142.5 174.3 144.15 135.41 186.87"/><polygon class="cls-1" points="127.43 181.57 125.73 179.92 159.88 142.41 161.58 144.07 127.43 181.57"/><polygon class="cls-1" points="119.45 176.29 117.75 174.63 147.17 142.32 148.87 143.98 119.45 176.29"/><polygon class="cls-1" points="111.47 171 109.77 169.34 134.45 142.24 136.15 143.89 111.47 171"/><polygon class="cls-1" points="103.49 165.71 101.79 164.06 121.74 142.15 123.44 143.8 103.49 165.71"/><polygon class="cls-1" points="95.52 160.42 93.81 158.77 109.02 142.06 110.72 143.72 95.52 160.42"/><polygon class="cls-1" points="87.54 155.13 85.83 153.48 96.31 141.97 98.01 143.63 87.54 155.13"/><polygon class="cls-1" points="445.7 239.73 444 238.07 449.14 232.43 450.84 234.08 445.7 239.73"/><polygon class="cls-1" points="437.72 234.44 436.02 232.79 447.24 220.47 448.94 222.12 437.72 234.44"/><polygon class="cls-1" points="429.74 229.15 428.04 227.5 447.24 206.41 448.94 208.07 429.74 229.15"/><polygon class="cls-1" points="421.77 223.86 420.06 222.21 447.24 192.36 448.94 194.01 421.77 223.86"/><polygon class="cls-1" points="420.94 210.71 419.24 209.06 446.09 179.56 447.8 181.22 420.94 210.71"/><polygon class="cls-1" points="420.25 197.42 418.55 195.76 441.46 170.6 443.16 172.25 420.25 197.42"/><polygon class="cls-1" points="409.04 195.65 407.34 193.99 433.64 165.13 435.34 166.79 409.04 195.65"/><polygon class="cls-1" points="396.28 195.65 394.57 193.99 422.3 163.54 424 165.2 396.28 195.65"/><polygon class="cls-1" points="381.87 197.42 380.17 195.76 409.58 163.45 411.28 165.11 381.87 197.42"/><polygon class="cls-1" points="378.62 186.94 376.92 185.28 396.87 163.37 398.57 165.02 378.62 186.94"/><polygon class="cls-1" points="377.24 174.4 375.54 172.74 384.15 163.28 385.85 164.93 377.24 174.4"/><polygon class="cls-1" points="349.95 176.26 348.25 174.61 358.72 163.1 360.43 164.76 349.95 176.26"/><polygon class="cls-4" points="202.34 250.54 259.35 288.16 183.12 344.8 202.34 250.54"/><path class="cls-1" d="M117.58,390.16l-1.49-1.87L190.66,325a1.11,1.11,0,0,1,1-.24l94.38,24.77-.57,2.34-93.81-24.62Z" transform="translate(-94.25 -126.7)"/><path class="cls-1" d="M142.09,330.43l-.15-2.41,47.67-3.22-24.39-53,2.11-1,25.13,54.56a1.25,1.25,0,0,1-.05,1.13,1.15,1.15,0,0,1-.93.6Z" transform="translate(-94.25 -126.7)"/><path class="cls-2" d="M369.93,508.4c4,.45,5.39,1.67,13.34-2.69l-5-4.09Z" transform="translate(-94.25 -126.7)"/><path class="cls-2" d="M283.25,509.14l18.21-.19-9-7.33Z" transform="translate(-94.25 -126.7)"/><path class="cls-2" d="M326.71,508.67l17.09-.18-8.44-6.87Z" transform="translate(-94.25 -126.7)"/><path class="cls-2" d="M377.27,428.3a1.55,1.55,0,0,1,2,0l20.21,16.48L385.39,420l-4.79-3.91-31.45,22.64,7.66,6.24Z" transform="translate(-94.25 -126.7)"/><path class="cls-2" d="M259.16,509.41l-3.83-3.12-4.46,3.21Z" transform="translate(-94.25 -126.7)"/><path class="cls-2" d="M291.5,480.76a1.54,1.54,0,0,1,2,0l20.46,16.68,20.46-16.68a1.55,1.55,0,0,1,2,0l20.46,16.68,20.46-16.68a1.55,1.55,0,0,1,2,0l17.07,13.92a148.67,148.67,0,0,0,12.42-17.91l-8.05,6.56a1.55,1.55,0,0,1-2,0l-20.46-16.69-20.46,16.69a1.57,1.57,0,0,1-1,.35,1.6,1.6,0,0,1-1-.35l-20.46-16.69-20.45,16.69a1.55,1.55,0,0,1-2,0l-12.06-9.84-31.44,22.64,1.6,1.31Z" transform="translate(-94.25 -126.7)"/><path class="cls-2" d="M377.27,445.78a1.55,1.55,0,0,1,2,0l20.46,16.69,6.69-5.46-5.16-9.1-.55.45a1.55,1.55,0,0,1-2,0l-20.46-16.69-20.46,16.69a1.57,1.57,0,0,1-1,.35,1.6,1.6,0,0,1-1-.35l-9.39-7.66-8.66,6.24,19,15.53Z" transform="translate(-94.25 -126.7)"/><path class="cls-2" d="M334.38,463.27a1.55,1.55,0,0,1,2,0L356.81,480l20.46-16.68a1.55,1.55,0,0,1,2,0L399.7,480l13.47-11h0l-5.16-9.1-7.33,6a1.55,1.55,0,0,1-2,0l-20.46-16.68-20.46,16.68a1.52,1.52,0,0,1-1,.36,1.55,1.55,0,0,1-1-.36l-20.46-16.68-20.45,16.68a1.55,1.55,0,0,1-2,0l-.67-.54-8.67,6.24L313.92,480Z" transform="translate(-94.25 -126.7)"/><path class="cls-2" d="M278.06,509.2l13.44-11a1.54,1.54,0,0,1,2,0l13.06,10.65,15-.16,12.86-10.49a1.55,1.55,0,0,1,2,0l12.51,10.2c7.17-.07,12.85-.13,16.09-.15l12.32-10.05a1.55,1.55,0,0,1,2,0l7,5.75h0a36.84,36.84,0,0,0,7.9-6.87l-15.93-13-20.46,16.69a1.57,1.57,0,0,1-1,.35,1.6,1.6,0,0,1-1-.35l-20.46-16.69-20.45,16.69a1.55,1.55,0,0,1-2,0l-20.46-16.69L272,500.82a1.54,1.54,0,0,1-2,0l-3.34-2.73-8.67,6.24,6.16,5Z" transform="translate(-94.25 -126.7)"/><polygon class="cls-1" points="288.18 288.08 286.35 289.4 291.14 293.3 288.18 288.08"/><path class="cls-1" d="M356.81,448.71a1.57,1.57,0,0,0,1-.35l20.46-16.69,20.46,16.69a1.55,1.55,0,0,0,2,0l.55-.45-1.78-3.13L379.24,428.3a1.55,1.55,0,0,0-2,0L356.81,445l-7.66-6.24-2.72,2,9.39,7.66A1.6,1.6,0,0,0,356.81,448.71Z" transform="translate(-94.25 -126.7)"/><path class="cls-1" d="M314.91,465.84l20.45-16.68,20.46,16.68a1.55,1.55,0,0,0,1,.36,1.52,1.52,0,0,0,1-.36l20.46-16.68,20.46,16.68a1.55,1.55,0,0,0,2,0l7.33-6L406.39,457l-6.69,5.46-20.46-16.69a1.55,1.55,0,0,0-2,0l-20.46,16.69-19-15.53-25.5,18.36.67.54A1.55,1.55,0,0,0,314.91,465.84Z" transform="translate(-94.25 -126.7)"/><path class="cls-1" d="M314.91,483.33l20.45-16.69,20.46,16.69a1.6,1.6,0,0,0,1,.35,1.57,1.57,0,0,0,1-.35l20.46-16.69,22,17.46a1.55,1.55,0,0,0,2,0l6.52-7.33c2.74-4.56,4.44-7.8,4.44-7.8l-11.94,11.75-22-17.45a1.55,1.55,0,0,0-2,0L356.81,480l-20.46-16.68a1.55,1.55,0,0,0-2,0L313.92,480l-10.32-8.41-2.72,1.95,12.06,9.84A1.55,1.55,0,0,0,314.91,483.33Z" transform="translate(-94.25 -126.7)"/><path class="cls-1" d="M270.81,500.06l21.67-15.93,20.46,16.69a1.55,1.55,0,0,0,2,0l20.45-16.69,20.46,16.69a1.6,1.6,0,0,0,1,.35,1.57,1.57,0,0,0,1-.35l20.46-16.69,15.93,13c.72-.78,1.43-1.6,2.13-2.44l-17.07-13.92a1.55,1.55,0,0,0-2,0l-20.46,16.68-20.46-16.68a1.55,1.55,0,0,0-2,0l-20.46,16.68-20.46-16.68a1.54,1.54,0,0,0-2,0l-21.68,15.92-1.6-1.31-2.72,2,3.34,2.73A1.55,1.55,0,0,0,270.81,500.06Z" transform="translate(-94.25 -126.7)"/><path class="cls-1" d="M264.21,509.35l-6.16-5-2.72,2,3.83,3.12Z" transform="translate(-94.25 -126.7)"/><path class="cls-1" d="M291.5,498.24l-13.44,11,5.19-.06,9.23-7.52,9,7.33,5.06-.06-13.06-10.65A1.54,1.54,0,0,0,291.5,498.24Z" transform="translate(-94.25 -126.7)"/><path class="cls-1" d="M377.27,498.24,365,508.29l2.66,0a22.12,22.12,0,0,1,2.32.13l8.32-6.78,5,4.09c.92-.49,1.91-1.06,3-1.72l-7-5.75A1.55,1.55,0,0,0,377.27,498.24Z" transform="translate(-94.25 -126.7)"/><path class="cls-1" d="M334.38,498.24l-12.86,10.49,5.19-.06,8.65-7.05,8.44,6.87,5.06-.05-12.51-10.2A1.55,1.55,0,0,0,334.38,498.24Z" transform="translate(-94.25 -126.7)"/><path class="cls-2" d="M382.43,414.78l6,10.3a2.68,2.68,0,0,1,.72,1.23l5.12,8.77a2.58,2.58,0,0,1,1.53-.72,2.67,2.67,0,0,1,2.88,2.46,2.74,2.74,0,0,1-1.74,2.83l5.15,8.81a2.6,2.6,0,0,1-.28-1,2.7,2.7,0,0,1,2.37-3,2.66,2.66,0,0,1,2.89,2.45,2.71,2.71,0,0,1-2.38,3,2.61,2.61,0,0,1-2.47-1.26l13.17,22.56a330,330,0,0,0,40.81-82.61,2.58,2.58,0,0,1-.87.26,2.68,2.68,0,0,1-2.89-2.46,2.7,2.7,0,0,1,2.38-3,2.63,2.63,0,0,1,2.59,1.43q1.31-4.12,2.45-8.14a2.75,2.75,0,0,1,1.31-4.91s.05,0,.07,0c2.85-10.53,5-20.38,6.58-29.37a2.84,2.84,0,0,1-.86.25,2.68,2.68,0,0,1-2.89-2.46,2.7,2.7,0,0,1,2.38-3,2.56,2.56,0,0,1,2.12.81c2-11.95,3.12-22.24,4-30.41a2.55,2.55,0,0,1-1.38.58,2.68,2.68,0,0,1-2.89-2.46,2.71,2.71,0,0,1,2.38-3,2.61,2.61,0,0,1,2.3,1c.56-5.25,1-9.42,1.68-12.35,4.23-19.67-8.47-22.95-8.47-22.95Zm79.86-122.1a2.66,2.66,0,0,1,2.88,2.45,2.71,2.71,0,0,1-2.37,3,2.68,2.68,0,0,1-2.89-2.46A2.7,2.7,0,0,1,462.29,292.68Zm-2.39,37a2.7,2.7,0,0,1-2.38,3,2.66,2.66,0,0,1-2.88-2.46,2.71,2.71,0,0,1,2.37-3A2.68,2.68,0,0,1,459.9,329.7Zm-5-25.3a2.67,2.67,0,0,1,2.89,2.45,2.73,2.73,0,0,1-2.38,3,2.68,2.68,0,0,1-2.89-2.46A2.7,2.7,0,0,1,454.88,304.4Zm-1.33,36.91a2.71,2.71,0,0,1-2.38,3,2.66,2.66,0,0,1-2.89-2.45,2.7,2.7,0,0,1,2.38-3A2.67,2.67,0,0,1,453.55,341.31Zm-5-25.3a2.66,2.66,0,0,1,2.89,2.46,2.71,2.71,0,0,1-2.38,3,2.68,2.68,0,0,1-2.89-2.46A2.71,2.71,0,0,1,448.52,316Zm-.25,59.87a2.71,2.71,0,0,1-2.38,3A2.67,2.67,0,0,1,443,376.4a2.7,2.7,0,0,1,2.38-3A2.66,2.66,0,0,1,448.27,375.88ZM446.14,353a2.71,2.71,0,0,1-2.38,3,2.66,2.66,0,0,1-2.89-2.45,2.72,2.72,0,0,1,2.38-3A2.68,2.68,0,0,1,446.14,353Zm-4.92-24.21a2.66,2.66,0,0,1,2.88,2.45,2.71,2.71,0,0,1-2.38,3,2.67,2.67,0,0,1-2.88-2.46A2.7,2.7,0,0,1,441.22,328.82Zm-1.44,35.83a2.71,2.71,0,0,1-2.38,3,2.67,2.67,0,0,1-2.88-2.46,2.7,2.7,0,0,1,2.37-3A2.66,2.66,0,0,1,439.78,364.65Zm-4.92-24.22a2.68,2.68,0,0,1,2.89,2.46,2.71,2.71,0,0,1-2.38,3,2.66,2.66,0,0,1-2.89-2.46A2.72,2.72,0,0,1,434.86,340.43Zm-.35,58.78a2.71,2.71,0,0,1-2.38,3,2.67,2.67,0,0,1-2.89-2.46,2.72,2.72,0,0,1,2.38-3A2.68,2.68,0,0,1,434.51,399.21Zm-2-21.76a2.7,2.7,0,0,1-2.37,3,2.66,2.66,0,0,1-2.89-2.45,2.7,2.7,0,0,1,2.38-3A2.66,2.66,0,0,1,432.47,377.45Zm-5-25.3a2.66,2.66,0,0,1,2.89,2.46,2.72,2.72,0,0,1-2.38,3,2.68,2.68,0,0,1-2.89-2.46A2.71,2.71,0,0,1,427.45,352.15Zm-1.33,36.92a2.72,2.72,0,0,1-2.38,3,2.68,2.68,0,0,1-2.89-2.46,2.71,2.71,0,0,1,2.38-3A2.66,2.66,0,0,1,426.12,389.07Zm-5-25.31a2.67,2.67,0,0,1,2.88,2.46,2.7,2.7,0,0,1-2.38,3,2.66,2.66,0,0,1-2.88-2.45A2.71,2.71,0,0,1,421.1,363.76Zm-.25,59.87a2.71,2.71,0,0,1-2.38,3,2.66,2.66,0,0,1-2.89-2.45,2.71,2.71,0,0,1,2.38-3A2.68,2.68,0,0,1,420.85,423.63Zm-2.14-22.84a2.71,2.71,0,0,1-2.38,3,2.68,2.68,0,0,1-2.89-2.46,2.71,2.71,0,0,1,2.38-3A2.66,2.66,0,0,1,418.71,400.79Zm-4.92-24.22a2.68,2.68,0,0,1,2.89,2.46,2.71,2.71,0,0,1-2.38,3,2.66,2.66,0,0,1-2.89-2.46A2.72,2.72,0,0,1,413.79,376.57ZM394.18,417a2.68,2.68,0,0,1-2.89-2.46,2.71,2.71,0,0,1,2.38-3,2.67,2.67,0,0,1,2.89,2.46A2.72,2.72,0,0,1,394.18,417Zm3.47-14.07a2.71,2.71,0,0,1,2.37-3,2.68,2.68,0,0,1,2.89,2.46,2.7,2.7,0,0,1-2.38,3A2.66,2.66,0,0,1,397.65,402.89Zm5,25.3a2.68,2.68,0,0,1-2.89-2.46,2.71,2.71,0,0,1,2.38-3,2.67,2.67,0,0,1,2.89,2.46A2.72,2.72,0,0,1,402.67,428.19Zm2.38-37a2.73,2.73,0,0,1,2.38-3,2.68,2.68,0,0,1,2.89,2.46,2.7,2.7,0,0,1-2.38,3A2.67,2.67,0,0,1,405.05,391.17Zm2,21.75a2.65,2.65,0,1,1,2.89,2.46A2.66,2.66,0,0,1,407.09,412.92Zm2.13,22.85a2.71,2.71,0,0,1,2.38-3,2.66,2.66,0,0,1,2.89,2.45,2.65,2.65,0,1,1-5.27.53ZM414.15,460a2.66,2.66,0,0,1-2.89-2.45,2.65,2.65,0,1,1,2.89,2.45Zm6.35-11.61a2.68,2.68,0,0,1-2.89-2.46,2.72,2.72,0,0,1,2.38-3,2.68,2.68,0,0,1,2.89,2.46A2.71,2.71,0,0,1,420.5,448.37Zm2.39-37a2.7,2.7,0,0,1,2.38-3,2.66,2.66,0,0,1,2.88,2.45,2.71,2.71,0,0,1-2.38,3A2.67,2.67,0,0,1,422.89,411.35Zm5,25.3a2.67,2.67,0,0,1-2.89-2.46,2.72,2.72,0,0,1,2.38-3,2.68,2.68,0,0,1,2.89,2.46A2.71,2.71,0,0,1,427.91,436.65ZM434.27,425a2.68,2.68,0,0,1-2.89-2.46,2.7,2.7,0,0,1,2.38-3,2.66,2.66,0,0,1,2.88,2.45A2.71,2.71,0,0,1,434.27,425Zm2.38-37a2.72,2.72,0,0,1,2.38-3,2.68,2.68,0,0,1,2.89,2.46,2.71,2.71,0,0,1-2.38,3A2.66,2.66,0,0,1,436.65,388Zm4.92,24.21a2.67,2.67,0,0,1-2.88-2.46,2.71,2.71,0,0,1,2.37-3,2.68,2.68,0,0,1,2.89,2.46A2.71,2.71,0,0,1,441.57,412.23Zm6.36-11.61a2.68,2.68,0,0,1-2.89-2.46,2.71,2.71,0,0,1,2.38-3,2.67,2.67,0,0,1,2.89,2.45A2.72,2.72,0,0,1,447.93,400.62Zm5.27-34.57a2.67,2.67,0,0,1-2.89-2.46,2.72,2.72,0,0,1,2.38-3,2.68,2.68,0,0,1,2.89,2.46A2.7,2.7,0,0,1,453.2,366.05Zm6.36-11.61a2.68,2.68,0,0,1-2.89-2.46,2.7,2.7,0,0,1,2.38-3,2.67,2.67,0,0,1,2.89,2.46A2.72,2.72,0,0,1,459.56,354.44Zm5.27-34.57a2.67,2.67,0,0,1-2.89-2.45,2.72,2.72,0,0,1,2.38-3,2.68,2.68,0,0,1,2.89,2.46A2.71,2.71,0,0,1,464.83,319.87Zm3.81-38.81a2.68,2.68,0,0,1,2.89,2.46,2.7,2.7,0,0,1-2.38,3,2.67,2.67,0,0,1-2.89-2.45A2.72,2.72,0,0,1,468.64,281.06Z" transform="translate(-94.25 -126.7)"/><path class="cls-1" d="M469.15,286.5a2.7,2.7,0,0,0,2.38-3,2.68,2.68,0,0,0-2.89-2.46,2.72,2.72,0,0,0-2.38,3A2.67,2.67,0,0,0,469.15,286.5Z" transform="translate(-94.25 -126.7)"/><path class="cls-1" d="M462.8,298.12a2.71,2.71,0,0,0,2.37-3,2.66,2.66,0,0,0-2.88-2.45,2.7,2.7,0,0,0-2.38,3A2.68,2.68,0,0,0,462.8,298.12Z" transform="translate(-94.25 -126.7)"/><path class="cls-1" d="M455.39,309.84a2.73,2.73,0,0,0,2.38-3,2.67,2.67,0,0,0-2.89-2.45,2.7,2.7,0,0,0-2.38,3A2.68,2.68,0,0,0,455.39,309.84Z" transform="translate(-94.25 -126.7)"/><path class="cls-1" d="M470.68,302.82a2.71,2.71,0,0,0-2.38,3,2.68,2.68,0,0,0,2.89,2.46,2.55,2.55,0,0,0,1.38-.58c.14-1.35.28-2.64.41-3.87A2.61,2.61,0,0,0,470.68,302.82Z" transform="translate(-94.25 -126.7)"/><path class="cls-1" d="M449,321.45a2.71,2.71,0,0,0,2.38-3,2.66,2.66,0,0,0-2.89-2.46,2.71,2.71,0,0,0-2.38,3A2.68,2.68,0,0,0,449,321.45Z" transform="translate(-94.25 -126.7)"/><path class="cls-1" d="M464.32,314.43a2.72,2.72,0,0,0-2.38,3,2.67,2.67,0,0,0,2.89,2.45,2.71,2.71,0,0,0,2.38-3A2.68,2.68,0,0,0,464.32,314.43Z" transform="translate(-94.25 -126.7)"/><path class="cls-1" d="M441.72,334.26a2.71,2.71,0,0,0,2.38-3,2.66,2.66,0,0,0-2.88-2.45,2.7,2.7,0,0,0-2.38,3A2.67,2.67,0,0,0,441.72,334.26Z" transform="translate(-94.25 -126.7)"/><path class="cls-1" d="M454.64,330.22a2.66,2.66,0,0,0,2.88,2.46,2.7,2.7,0,0,0,2.38-3,2.68,2.68,0,0,0-2.89-2.46A2.71,2.71,0,0,0,454.64,330.22Z" transform="translate(-94.25 -126.7)"/><path class="cls-1" d="M435.37,345.87a2.71,2.71,0,0,0,2.38-3,2.68,2.68,0,0,0-2.89-2.46,2.72,2.72,0,0,0-2.38,3A2.66,2.66,0,0,0,435.37,345.87Z" transform="translate(-94.25 -126.7)"/><path class="cls-1" d="M450.66,338.86a2.7,2.7,0,0,0-2.38,3,2.66,2.66,0,0,0,2.89,2.45,2.71,2.71,0,0,0,2.38-3A2.67,2.67,0,0,0,450.66,338.86Z" transform="translate(-94.25 -126.7)"/><path class="cls-1" d="M464.08,340.26a2.68,2.68,0,0,0,2.89,2.46,2.84,2.84,0,0,0,.86-.25q.39-2.24.75-4.38a2.56,2.56,0,0,0-2.12-.81A2.7,2.7,0,0,0,464.08,340.26Z" transform="translate(-94.25 -126.7)"/><path class="cls-1" d="M428,357.59a2.72,2.72,0,0,0,2.38-3,2.66,2.66,0,0,0-2.89-2.46,2.71,2.71,0,0,0-2.38,3A2.68,2.68,0,0,0,428,357.59Z" transform="translate(-94.25 -126.7)"/><path class="cls-1" d="M440.87,353.56a2.66,2.66,0,0,0,2.89,2.45,2.71,2.71,0,0,0,2.38-3,2.68,2.68,0,0,0-2.89-2.46A2.72,2.72,0,0,0,440.87,353.56Z" transform="translate(-94.25 -126.7)"/><path class="cls-1" d="M459.05,349a2.7,2.7,0,0,0-2.38,3,2.68,2.68,0,0,0,2.89,2.46,2.72,2.72,0,0,0,2.38-3A2.67,2.67,0,0,0,459.05,349Z" transform="translate(-94.25 -126.7)"/><path class="cls-1" d="M421.6,369.2a2.7,2.7,0,0,0,2.38-3,2.67,2.67,0,0,0-2.88-2.46,2.71,2.71,0,0,0-2.38,3A2.66,2.66,0,0,0,421.6,369.2Z" transform="translate(-94.25 -126.7)"/><path class="cls-1" d="M436.89,362.19a2.7,2.7,0,0,0-2.37,3,2.67,2.67,0,0,0,2.88,2.46,2.71,2.71,0,0,0,2.38-3A2.66,2.66,0,0,0,436.89,362.19Z" transform="translate(-94.25 -126.7)"/><path class="cls-1" d="M452.69,360.61a2.72,2.72,0,0,0-2.38,3,2.67,2.67,0,0,0,2.89,2.46,2.7,2.7,0,0,0,2.38-3A2.68,2.68,0,0,0,452.69,360.61Z" transform="translate(-94.25 -126.7)"/><path class="cls-1" d="M414.3,382a2.71,2.71,0,0,0,2.38-3,2.68,2.68,0,0,0-2.89-2.46,2.72,2.72,0,0,0-2.38,3A2.66,2.66,0,0,0,414.3,382Z" transform="translate(-94.25 -126.7)"/><path class="cls-1" d="M427.21,378a2.66,2.66,0,0,0,2.89,2.45,2.7,2.7,0,0,0,2.37-3,2.66,2.66,0,0,0-2.88-2.45A2.7,2.7,0,0,0,427.21,378Z" transform="translate(-94.25 -126.7)"/><path class="cls-1" d="M443,376.4a2.67,2.67,0,0,0,2.88,2.46,2.71,2.71,0,0,0,2.38-3,2.66,2.66,0,0,0-2.88-2.46A2.7,2.7,0,0,0,443,376.4Z" transform="translate(-94.25 -126.7)"/><path class="cls-1" d="M458.81,374.83a2.7,2.7,0,0,0,1.06,1.92q.72-2.47,1.38-4.91s0,0-.07,0A2.71,2.71,0,0,0,458.81,374.83Z" transform="translate(-94.25 -126.7)"/><path class="cls-1" d="M410.32,390.64a2.68,2.68,0,0,0-2.89-2.46,2.73,2.73,0,0,0-2.38,3,2.67,2.67,0,0,0,2.89,2.45A2.7,2.7,0,0,0,410.32,390.64Z" transform="translate(-94.25 -126.7)"/><path class="cls-1" d="M423.23,386.61a2.71,2.71,0,0,0-2.38,3,2.68,2.68,0,0,0,2.89,2.46,2.72,2.72,0,0,0,2.38-3A2.66,2.66,0,0,0,423.23,386.61Z" transform="translate(-94.25 -126.7)"/><path class="cls-1" d="M441.92,387.49A2.68,2.68,0,0,0,439,385a2.72,2.72,0,0,0-2.38,3,2.66,2.66,0,0,0,2.89,2.45A2.71,2.71,0,0,0,441.92,387.49Z" transform="translate(-94.25 -126.7)"/><path class="cls-1" d="M454.83,383.46a2.7,2.7,0,0,0-2.38,3,2.68,2.68,0,0,0,2.89,2.46,2.58,2.58,0,0,0,.87-.26c.41-1.26.82-2.5,1.21-3.75A2.63,2.63,0,0,0,454.83,383.46Z" transform="translate(-94.25 -126.7)"/><path class="cls-1" d="M402.91,402.36A2.68,2.68,0,0,0,400,399.9a2.71,2.71,0,0,0-2.37,3,2.66,2.66,0,0,0,2.88,2.45A2.7,2.7,0,0,0,402.91,402.36Z" transform="translate(-94.25 -126.7)"/><path class="cls-1" d="M413.44,401.31a2.68,2.68,0,0,0,2.89,2.46,2.71,2.71,0,0,0,2.38-3,2.66,2.66,0,0,0-2.89-2.46A2.71,2.71,0,0,0,413.44,401.31Z" transform="translate(-94.25 -126.7)"/><path class="cls-1" d="M429.24,399.73a2.67,2.67,0,0,0,2.89,2.46,2.71,2.71,0,0,0,2.38-3,2.68,2.68,0,0,0-2.89-2.46A2.72,2.72,0,0,0,429.24,399.73Z" transform="translate(-94.25 -126.7)"/><path class="cls-1" d="M447.42,395.18a2.71,2.71,0,0,0-2.38,3,2.68,2.68,0,0,0,2.89,2.46,2.72,2.72,0,0,0,2.38-3A2.67,2.67,0,0,0,447.42,395.18Z" transform="translate(-94.25 -126.7)"/><path class="cls-1" d="M393.67,411.52a2.71,2.71,0,0,0-2.38,3,2.68,2.68,0,0,0,2.89,2.46,2.72,2.72,0,0,0,2.38-3A2.67,2.67,0,0,0,393.67,411.52Z" transform="translate(-94.25 -126.7)"/><path class="cls-1" d="M412.36,412.4a2.65,2.65,0,1,0-2.38,3A2.69,2.69,0,0,0,412.36,412.4Z" transform="translate(-94.25 -126.7)"/><path class="cls-1" d="M428.15,410.82a2.66,2.66,0,0,0-2.88-2.45,2.7,2.7,0,0,0-2.38,3,2.67,2.67,0,0,0,2.88,2.46A2.71,2.71,0,0,0,428.15,410.82Z" transform="translate(-94.25 -126.7)"/><path class="cls-1" d="M441.06,406.79a2.71,2.71,0,0,0-2.37,3,2.67,2.67,0,0,0,2.88,2.46,2.71,2.71,0,0,0,2.38-3A2.68,2.68,0,0,0,441.06,406.79Z" transform="translate(-94.25 -126.7)"/><path class="cls-1" d="M388.44,425.08l.72,1.23A2.68,2.68,0,0,0,388.44,425.08Z" transform="translate(-94.25 -126.7)"/><path class="cls-1" d="M402.16,422.75a2.71,2.71,0,0,0-2.38,3,2.68,2.68,0,0,0,2.89,2.46,2.72,2.72,0,0,0,2.38-3A2.67,2.67,0,0,0,402.16,422.75Z" transform="translate(-94.25 -126.7)"/><path class="cls-1" d="M415.58,424.16a2.66,2.66,0,0,0,2.89,2.45,2.71,2.71,0,0,0,2.38-3,2.68,2.68,0,0,0-2.89-2.46A2.71,2.71,0,0,0,415.58,424.16Z" transform="translate(-94.25 -126.7)"/><path class="cls-1" d="M433.76,419.6a2.7,2.7,0,0,0-2.38,3,2.68,2.68,0,0,0,2.89,2.46,2.71,2.71,0,0,0,2.37-3A2.66,2.66,0,0,0,433.76,419.6Z" transform="translate(-94.25 -126.7)"/><path class="cls-1" d="M398.69,436.82a2.67,2.67,0,0,0-2.88-2.46,2.58,2.58,0,0,0-1.53.72l2.67,4.57A2.74,2.74,0,0,0,398.69,436.82Z" transform="translate(-94.25 -126.7)"/><path class="cls-1" d="M414.49,435.24a2.66,2.66,0,0,0-2.89-2.45,2.73,2.73,0,1,0,2.89,2.45Z" transform="translate(-94.25 -126.7)"/><path class="cls-1" d="M427.4,431.21a2.72,2.72,0,0,0-2.38,3,2.67,2.67,0,0,0,2.89,2.46,2.71,2.71,0,0,0,2.38-3A2.68,2.68,0,0,0,427.4,431.21Z" transform="translate(-94.25 -126.7)"/><path class="cls-1" d="M404.7,450a2.71,2.71,0,0,0,2.38-3,2.66,2.66,0,0,0-2.89-2.45,2.7,2.7,0,0,0-2.37,3,2.6,2.6,0,0,0,.28,1l.13.23A2.61,2.61,0,0,0,404.7,450Z" transform="translate(-94.25 -126.7)"/><path class="cls-1" d="M420,442.93a2.72,2.72,0,0,0-2.38,3,2.68,2.68,0,0,0,2.89,2.46,2.71,2.71,0,0,0,2.38-3A2.68,2.68,0,0,0,420,442.93Z" transform="translate(-94.25 -126.7)"/><path class="cls-1" d="M413.64,454.54a2.71,2.71,0,0,0-2.38,3,2.66,2.66,0,0,0,2.89,2.45,2.73,2.73,0,0,0-.51-5.44Z" transform="translate(-94.25 -126.7)"/><path class="cls-2" d="M141.47,430a2.82,2.82,0,0,1,2.86-.48l33.51,13.37L161.2,428.39,130.37,416.1l1.48,8.73c3.55,8.33,7.33,16.19,11.24,23.51l-2.63-15.51A3,3,0,0,1,141.47,430Z" transform="translate(-94.25 -126.7)"/><path class="cls-2" d="M125.12,396.87,121,395.22q2.5,8.08,5.34,15.75l27.46,10.95Z" transform="translate(-94.25 -126.7)"/><path class="cls-2" d="M253.75,509.5H254l-.21-.18Z" transform="translate(-94.25 -126.7)"/><polygon class="cls-2" points="69.39 331.21 70.88 340 105.16 363.54 111.53 348.02 69.39 331.21"/><path class="cls-2" d="M243.52,500.32l-3.77,9.18h7.75l1.73-4.2Z" transform="translate(-94.25 -126.7)"/><path class="cls-2" d="M231.16,489.52l-8.22,20H236.3L241,498.1Z" transform="translate(-94.25 -126.7)"/><path class="cls-2" d="M185.24,449.4l-41.56-16.58,4,23.86A212.19,212.19,0,0,0,171.18,490l28.33,19.46h8.78l12.09-29.41Zm-23,19.25-2.7-15.89L210,472.88l-9.15,22.28Z" transform="translate(-94.25 -126.7)"/><path class="cls-2" d="M222.92,482.31,211.74,509.5h7.76l9.13-22.2Z" transform="translate(-94.25 -126.7)"/><path class="cls-1" d="M249.23,505.3l-1.73,4.2h6.25l.08-.18Z" transform="translate(-94.25 -126.7)"/><path class="cls-1" d="M241,498.1l-4.69,11.4h3.45l3.77-9.18Z" transform="translate(-94.25 -126.7)"/><path class="cls-1" d="M228.63,487.3l-9.13,22.2h3.44l8.22-20Z" transform="translate(-94.25 -126.7)"/><path class="cls-3" d="M120.19,392.56c.26.89.54,1.78.81,2.66l4.12,1.65Z" transform="translate(-94.25 -126.7)"/><path class="cls-1" d="M161.2,428.39l-7.4-6.47L126.34,411q2.64,7.13,5.51,13.86l-1.48-8.73Z" transform="translate(-94.25 -126.7)"/><path class="cls-1" d="M198.49,509.5h1L171.18,490C182.12,502.51,192,509.5,198.49,509.5Z" transform="translate(-94.25 -126.7)"/><path class="cls-1" d="M185.24,449.4l-7.4-6.47-33.51-13.37a2.82,2.82,0,0,0-2.86.48,3,3,0,0,0-1,2.79l2.63,15.51q2.28,4.29,4.63,8.34l-4-23.86Z" transform="translate(-94.25 -126.7)"/><path class="cls-1" d="M220.38,480.09,208.29,509.5h3.45l11.18-27.19Z" transform="translate(-94.25 -126.7)"/><path class="cls-1" d="M159.54,452.76l2.7,15.89,38.59,26.51L210,472.88Zm39.87,37.48L165.13,466.7l-1.49-8.79,42.14,16.81Z" transform="translate(-94.25 -126.7)"/><polygon class="cls-1" points="445.6 245.88 418.79 226.57 422.8 220.63 449.61 239.94 445.6 245.88"/><polygon class="cls-1" points="340.61 146.33 341.01 143.4 340.78 142.9 339.02 142.9 340.61 146.33"/><polygon class="cls-1" points="338.58 154.33 333.26 142.91 331.5 142.91 336.69 154.06 338.58 154.33"/><polygon class="cls-1" points="324.97 145.97 326.4 145.26 325.31 142.93 323.55 142.93 324.97 145.97"/><polygon class="cls-1" points="321.98 151.92 317.8 142.94 316.03 142.94 320.09 151.65 321.98 151.92"/><polygon class="cls-1" points="310.72 143.9 309.29 144.62 312.02 150.47 313.91 150.75 310.72 143.9"/><polygon class="cls-1" points="303.49 149.22 304.92 148.51 302.34 142.96 300.58 142.97 303.49 149.22"/><polygon class="cls-1" points="297.32 148.34 294.82 142.98 293.06 142.98 295.43 148.07 297.32 148.34"/><polygon class="cls-1" points="278.83 145.66 280.72 145.93 279.36 143 277.59 143 278.83 145.66"/><polygon class="cls-1" points="272.65 144.76 271.84 143.01 270.07 143.02 270.76 144.49 272.65 144.76"/><polygon class="cls-1" points="365.7 150.81 366.68 149.13 363.75 142.86 361.99 142.86 365.7 150.81"/><polygon class="cls-1" points="361.69 157.69 362.5 156.31 356.24 142.87 354.48 142.88 361.35 157.64 361.69 157.69"/><polygon class="cls-1" points="351.98 149.89 350.55 150.6 353.28 156.47 355.17 156.74 351.98 149.89"/><polygon class="cls-1" points="344.75 155.21 346.19 154.5 341.01 143.4 340.61 146.33 344.75 155.21"/><polygon class="cls-1" points="254.58 155.34 253.41 156.62 254.69 159.37 255.09 156.44 254.58 155.34"/><polygon class="cls-1" points="249.58 160.78 248.41 162.05 252.99 171.87 253.39 168.94 249.58 160.78"/><polygon class="cls-1" points="244.59 166.21 243.42 167.49 251.29 184.37 251.69 181.44 244.59 166.21"/><polygon class="cls-1" points="242.88 178.69 241.44 179.4 249.59 196.88 249.98 193.95 242.88 178.69"/><polygon class="cls-1" points="241.18 191.19 239.74 191.9 247.88 209.38 248.28 206.45 241.18 191.19"/><polygon class="cls-1" points="246.58 218.95 239.47 203.69 238.04 204.4 246.18 221.88 246.58 218.95"/><polygon class="cls-1" points="237.77 216.19 236.34 216.9 242.26 229.61 244.15 229.88 237.77 216.19"/><polygon class="cls-1" points="235.65 184 237.08 183.29 234.33 177.39 233.16 178.66 235.65 184"/><polygon class="cls-1" points="233.94 196.51 235.38 195.79 229.33 182.82 228.16 184.09 233.94 196.51"/><polygon class="cls-1" points="232.24 209.03 233.67 208.31 224.34 188.26 223.16 189.54 232.24 209.03"/><polygon class="cls-1" points="231.97 220.82 219.69 194.45 218.26 195.16 230.54 221.53 231.97 220.82"/><polygon class="cls-1" points="216.56 207.66 225.66 227.2 227.55 227.47 217.99 206.95 216.56 207.66"/><polygon class="cls-1" points="216.29 219.46 214.86 220.17 217.59 226.03 219.48 226.3 216.29 219.46"/><polygon class="cls-1" points="210.76 212.27 212.19 211.56 209.08 204.87 207.91 206.15 210.76 212.27"/><polygon class="cls-1" points="210.49 224.06 204.09 210.31 202.91 211.58 209.06 224.78 210.49 224.06"/><polygon class="cls-1" points="199.09 215.74 197.92 217.01 201 223.62 202.89 223.89 199.09 215.74"/><polygon class="cls-1" points="338.91 158.83 339.31 155.9 338.58 154.33 336.69 154.06 338.91 158.83"/><polygon class="cls-1" points="330.5 153.16 329.07 153.87 337.21 171.35 337.61 168.42 330.5 153.16"/><polygon class="cls-1" points="328.8 165.66 327.37 166.37 335.51 183.85 335.91 180.92 328.8 165.66"/><polygon class="cls-1" points="327.1 178.16 325.67 178.87 333.81 196.35 334.21 193.42 327.1 178.16"/><polygon class="cls-1" points="332.5 205.93 325.4 190.66 323.97 191.38 332.02 208.67 332.17 208.41 332.5 205.93"/><polygon class="cls-1" points="322.26 203.88 327.84 215.85 328.82 214.16 323.7 203.17 322.26 203.88"/><polygon class="cls-1" points="322 215.67 320.56 216.38 323.66 223.03 324.64 221.34 322 215.67"/><polygon class="cls-1" points="318.86 228.88 319.48 230.21 320.46 228.53 320.3 228.17 318.86 228.88"/><polygon class="cls-1" points="323.27 158.48 324.7 157.77 321.98 151.92 320.09 151.65 323.27 158.48"/><polygon class="cls-1" points="323 170.27 313.91 150.75 312.02 150.47 321.57 170.98 323 170.27"/><polygon class="cls-1" points="321.3 182.77 309.02 156.41 307.59 157.12 319.87 183.48 321.3 182.77"/><polygon class="cls-1" points="307.32 168.91 305.89 169.62 318.17 195.98 319.6 195.27 307.32 168.91"/><polygon class="cls-1" points="304.19 182.12 316.47 208.49 317.9 207.77 305.62 181.41 304.19 182.12"/><polygon class="cls-1" points="314.76 221 316.19 220.29 303.92 193.93 302.48 194.64 314.76 221"/><polygon class="cls-1" points="300.78 207.14 313.06 233.51 314.49 232.79 302.21 206.43 300.78 207.14"/><polygon class="cls-1" points="300.51 218.93 299.08 219.64 308.18 239.18 310.07 239.45 300.51 218.93"/><polygon class="cls-1" points="298.81 231.44 297.38 232.15 300.11 238.01 302 238.28 298.81 231.44"/><polygon class="cls-1" points="301.79 161.73 303.22 161.01 297.32 148.34 295.43 148.07 301.79 161.73"/><polygon class="cls-1" points="300.09 174.24 301.52 173.53 289.24 147.17 289.24 147.17 287.81 147.88 300.09 174.24"/><polygon class="cls-1" points="299.82 186.03 287.54 159.67 286.11 160.38 298.39 186.75 299.82 186.03"/><polygon class="cls-1" points="298.12 198.54 285.84 172.17 284.41 172.88 296.69 199.25 298.12 198.54"/><polygon class="cls-1" points="296.42 211.04 284.14 184.68 282.7 185.39 294.98 211.75 296.42 211.04"/><polygon class="cls-1" points="294.71 223.54 282.44 197.18 281 197.89 293.28 224.25 294.71 223.54"/><polygon class="cls-1" points="293.01 236.04 280.74 209.68 279.3 210.39 291.58 236.75 293.01 236.04"/><polygon class="cls-1" points="277.6 222.89 283.52 235.6 285.41 235.87 279.03 222.18 277.6 222.89"/><polygon class="cls-1" points="282.01 152.49 283.44 151.78 280.72 145.93 278.83 145.66 282.01 152.49"/><polygon class="cls-1" points="280.31 164.99 281.74 164.28 272.65 144.76 270.76 144.49 280.31 164.99"/><polygon class="cls-1" points="280.04 176.78 267.76 150.42 266.33 151.13 278.61 177.49 280.04 176.78"/><polygon class="cls-1" points="278.34 189.28 266.06 162.92 264.63 163.63 276.91 189.99 278.34 189.28"/><polygon class="cls-1" points="276.64 201.78 264.36 175.42 262.93 176.13 275.2 202.5 276.64 201.78"/><polygon class="cls-1" points="274.93 214.3 262.65 187.94 261.22 188.65 273.5 215.01 274.93 214.3"/><polygon class="cls-1" points="273.23 226.81 260.95 200.44 259.52 201.15 271.8 227.52 273.23 226.81"/><polygon class="cls-1" points="257.82 213.66 266.92 233.19 268.81 233.46 259.25 212.94 257.82 213.66"/><polygon class="cls-1" points="257.55 225.45 256.12 226.16 258.85 232.02 260.74 232.29 257.55 225.45"/><polygon class="cls-1" points="260.53 155.74 261.96 155.02 259.58 149.9 258.41 151.18 260.53 155.74"/><polygon class="cls-1" points="260.26 167.54 255.09 156.44 254.69 159.37 258.83 168.25 260.26 167.54"/><polygon class="cls-1" points="258.56 180.04 253.39 168.94 252.99 171.87 257.13 180.76 258.56 180.04"/><polygon class="cls-1" points="256.86 192.55 251.69 181.44 251.29 184.37 255.42 193.26 256.86 192.55"/><polygon class="cls-1" points="255.16 205.05 249.98 193.95 249.59 196.88 253.72 205.76 255.16 205.05"/><polygon class="cls-1" points="253.45 217.55 248.28 206.45 247.88 209.38 252.02 218.26 253.45 217.55"/><polygon class="cls-1" points="250.32 230.76 251.75 230.05 246.58 218.95 246.18 221.88 250.32 230.76"/><polygon class="cls-1" points="361.52 157.99 361.69 157.69 361.35 157.64 361.52 157.99"/><polygon class="cls-1" points="358.32 163.49 355.17 156.74 353.28 156.47 357.34 165.17 358.32 163.49"/><polygon class="cls-1" points="348.85 163.11 353.16 172.35 354.14 170.67 350.28 162.4 348.85 163.11"/><polygon class="cls-1" points="348.58 174.9 347.15 175.61 348.98 179.53 349.96 177.85 348.58 174.9"/><polygon class="cls-1" points="343.05 167.72 344.48 167 339.31 155.9 338.91 158.83 343.05 167.72"/><polygon class="cls-1" points="337.21 171.35 341.35 180.23 342.78 179.52 337.61 168.42 337.21 171.35"/><polygon class="cls-1" points="335.51 183.85 339.65 192.74 341.08 192.02 335.91 180.92 335.51 183.85"/><polygon class="cls-1" points="334.21 193.42 333.81 196.35 336.2 201.49 337.18 199.8 334.21 193.42"/><polygon class="cls-1" points="333 206.98 332.5 205.93 332.17 208.41 333 206.98"/><polygon class="cls-1" points="244.15 229.88 242.26 229.61 244.48 234.38 244.88 231.45 244.15 229.88"/><polygon class="cls-1" points="243.18 243.97 236.07 228.71 234.64 229.42 242.78 246.9 243.18 243.97"/><polygon class="cls-1" points="234.37 241.21 232.94 241.92 239.43 255.86 241.38 257.16 241.48 256.47 234.37 241.21"/><polygon class="cls-1" points="228.84 234.03 230.27 233.32 227.55 227.47 225.66 227.2 228.84 234.03"/><polygon class="cls-1" points="228.57 245.82 219.48 226.3 217.59 226.03 227.14 246.53 228.57 245.82"/><polygon class="cls-1" points="214.59 231.96 213.16 232.67 217 240.93 219.56 242.63 214.59 231.96"/><polygon class="cls-1" points="201 223.62 205.48 233.25 208.04 234.96 202.89 223.89 201 223.62"/><polygon class="cls-1" points="194.81 222.72 194.81 222.72 193.38 223.43 194.56 225.98 197.12 227.68 194.81 222.72"/><polygon class="cls-1" points="308.18 239.18 310.88 244.98 311.86 243.3 310.07 239.45 308.18 239.18"/><polygon class="cls-1" points="307.68 250.48 302 238.28 300.11 238.01 306.7 252.16 307.68 250.48"/><polygon class="cls-1" points="303.5 257.66 297.11 243.94 295.68 244.65 302.52 259.34 303.5 257.66"/><polygon class="cls-1" points="295.41 256.44 293.98 257.15 298.34 266.52 299.32 264.84 295.41 256.44"/><polygon class="cls-1" points="293.71 268.94 292.28 269.65 294.16 273.7 295.14 272.02 293.71 268.94"/><polygon class="cls-1" points="289.88 249.26 291.31 248.54 285.41 235.87 283.52 235.6 289.88 249.26"/><polygon class="cls-1" points="289.61 261.06 277.33 234.7 275.9 235.41 288.18 261.77 289.61 261.06"/><polygon class="cls-1" points="287.91 273.57 275.63 247.2 274.2 247.91 286.48 274.28 287.91 273.57"/><polygon class="cls-1" points="273.93 259.7 272.5 260.42 284.29 285.75 285.39 286.48 286.21 286.07 273.93 259.7"/><polygon class="cls-1" points="272.23 272.21 270.8 272.92 273.39 278.48 275.94 280.18 272.23 272.21"/><polygon class="cls-1" points="270.1 240.02 271.53 239.31 268.81 233.46 266.92 233.19 270.1 240.02"/><polygon class="cls-1" points="269.83 251.81 260.74 232.29 258.85 232.02 268.4 252.52 269.83 251.81"/><polygon class="cls-1" points="268.13 264.31 255.85 237.95 254.42 238.66 266.7 265.02 268.13 264.31"/><polygon class="cls-1" points="254.15 250.45 252.72 251.16 261.87 270.81 264.43 272.51 254.15 250.45"/><polygon class="cls-1" points="252.45 262.95 251.09 263.63 253.52 265.25 252.45 262.95"/><polygon class="cls-1" points="250.05 242.56 244.88 231.45 244.48 234.38 248.62 243.27 250.05 242.56"/><polygon class="cls-1" points="246.92 255.79 248.35 255.07 243.18 243.97 242.78 246.9 246.92 255.79"/><polygon class="cls-1" points="241.38 257.16 241.99 257.56 241.48 256.47 241.38 257.16"/><path class="cls-2" d="M534,367.73l2.05-2.12-4.16-2.89v5h-5.43l5.08-5.25-7.2-5v1.35h-5.43l3-3.06L514,350.3v5.86l2.83-2.92v5.6H514V365l2.83-2.92v5.61H514v6.2l2.83-2.92v5.6h-5.43l1.49-1.54h-3.61v1.54h-5.43l1.5-1.54h-3.61v1.54H496.3l1.49-1.54h-3.61v1.54h-2.06V382l2.06-2.14v5.61h-2.06v5.41l2.06-2.13v5.61h-2.06v5.41l2.06-2.14v5.61h-2.06v.51h30a16.47,16.47,0,0,0,4.57-.68l5.26-5.44v3a21.63,21.63,0,0,0,6.08-6.23h-4l5.43-5.61v2.89a20,20,0,0,0,1.83-8.23V369.22l-2.15-1.49Zm-32.29,35.54H496.3l5.43-5.61Zm0-8.88H496.3l5.43-5.61Zm0-8.89H496.3l5.43-5.61Zm7.54,17.77h-5.43l5.43-5.61Zm0-8.88h-5.43l5.43-5.61Zm0-8.89h-5.43l5.43-5.61Zm7.55,17.77h-5.43l5.43-5.61Zm0-8.88h-5.43l5.43-5.61Zm0-8.89h-5.43l5.43-5.61Zm7.54,17.77h-5.43l5.43-5.61Zm0-8.88h-5.43l5.43-5.61Zm0-8.89h-5.43l5.43-5.61Zm0-8.89h-5.43l5.43-5.6Zm0-8.88h-5.43l5.43-5.61Zm7.55,26.66h-5.43l5.43-5.61Zm0-8.89h-5.43l5.43-5.61Zm0-8.89h-5.43l5.43-5.6Zm7.54,8.89H534l5.43-5.61Zm0-8.89H534l5.43-5.6Z" transform="translate(-94.25 -126.7)"/><polygon class="cls-1" points="444.88 241.03 441.83 238.91 439.78 241.03 444.88 241.03"/><polygon class="cls-1" points="445.21 249.91 445.21 244.31 439.78 249.91 445.21 249.91"/><polygon class="cls-1" points="445.21 258.8 445.21 253.19 439.78 258.8 445.21 258.8"/><path class="cls-1" d="M534,394.39h4a21.54,21.54,0,0,0,1.46-2.72v-2.89Z" transform="translate(-94.25 -126.7)"/><polygon class="cls-1" points="437.66 241.03 437.66 236.02 437.31 235.78 432.23 241.03 437.66 241.03"/><polygon class="cls-1" points="437.66 249.91 437.66 244.31 432.23 249.91 437.66 249.91"/><polygon class="cls-1" points="437.66 258.8 437.66 253.19 432.23 258.8 437.66 258.8"/><polygon class="cls-1" points="437.66 267.69 437.66 262.08 432.23 267.69 437.66 267.69"/><path class="cls-1" d="M526.65,403.1a19,19,0,0,0,5.26-2.48v-3Z" transform="translate(-94.25 -126.7)"/><polygon class="cls-1" points="430.12 232.14 430.12 230.79 427.65 229.08 424.69 232.14 430.12 232.14"/><polygon class="cls-1" points="430.12 241.03 430.12 235.42 424.69 241.03 430.12 241.03"/><polygon class="cls-1" points="430.12 249.91 430.12 244.31 424.69 249.91 430.12 249.91"/><polygon class="cls-1" points="430.12 258.8 430.12 253.19 424.69 258.8 430.12 258.8"/><polygon class="cls-1" points="430.12 267.69 430.12 262.08 424.69 267.69 430.12 267.69"/><polygon class="cls-1" points="430.12 276.57 430.12 270.96 424.69 276.57 430.12 276.57"/><polygon class="cls-1" points="422.57 226.53 419.74 229.46 419.74 232.14 422.57 232.14 422.57 226.53"/><polygon class="cls-1" points="422.57 235.42 419.74 238.34 419.74 241.03 422.57 241.03 422.57 235.42"/><polygon class="cls-1" points="422.57 249.91 422.57 244.31 419.74 247.23 419.74 248.37 418.64 248.37 417.14 249.91 422.57 249.91"/><polygon class="cls-1" points="422.57 258.8 422.57 253.19 417.14 258.8 422.57 258.8"/><polygon class="cls-1" points="422.57 267.69 422.57 262.08 417.14 267.69 422.57 267.69"/><polygon class="cls-1" points="422.57 276.57 422.57 270.96 417.14 276.57 422.57 276.57"/><polygon class="cls-1" points="415.03 249.91 415.03 248.37 411.09 248.37 409.6 249.91 415.03 249.91"/><polygon class="cls-1" points="415.03 258.8 415.03 253.19 409.6 258.8 415.03 258.8"/><polygon class="cls-1" points="415.03 267.69 415.03 262.08 409.6 267.69 415.03 267.69"/><polygon class="cls-1" points="415.03 276.57 415.03 270.96 409.6 276.57 415.03 276.57"/><polygon class="cls-1" points="407.48 249.91 407.48 248.37 403.55 248.37 402.05 249.91 407.48 249.91"/><polygon class="cls-1" points="407.48 258.8 407.48 253.19 402.05 258.8 407.48 258.8"/><polygon class="cls-1" points="407.48 267.69 407.48 262.08 402.05 267.69 407.48 267.69"/><polygon class="cls-1" points="407.48 276.57 407.48 270.96 402.05 276.57 407.48 276.57"/><rect class="cls-1" x="397.87" y="248.37" width="2.06" height="1.54"/><polygon class="cls-1" points="399.94 253.19 397.87 255.32 397.87 258.8 399.94 258.8 399.94 253.19"/><polygon class="cls-1" points="399.94 262.08 397.87 264.21 397.87 267.69 399.94 267.69 399.94 262.08"/><polygon class="cls-1" points="399.94 270.96 397.87 273.1 397.87 276.57 399.94 276.57 399.94 270.96"/><path class="cls-1" d="M259.47,245.15a24.51,24.51,0,0,0,3.32-2.37H285a13,13,0,0,0,2.38,2.37Zm23.2-7.92a10.66,10.66,0,0,1-2.3-9.58l4.36-21a23.74,23.74,0,0,0,3.4-.39l-5.3,25.65A14.87,14.87,0,0,0,282.67,237.23Zm3.48-37.37a28.58,28.58,0,0,0,10.29-6.18l1,4.84a22.76,22.76,0,0,1-7.84,4,19.25,19.25,0,0,1-4.19.79Zm5.78-28.1.87,4.35-2.06,1.35Zm11.64-32.39a10.69,10.69,0,0,1,1.11-7.92h5.78c-4.12,3.28-5.6,7.65-4.44,13.15L311.65,172a14.17,14.17,0,0,0-1.43-.23Zm2.53,105.78a14.35,14.35,0,0,0,2.3-2.37h22.25a20.65,20.65,0,0,0,3.25,2.37Zm12-60.57a20.63,20.63,0,0,1,2.53,1.34l.64.4a14.36,14.36,0,0,0-7.92.71l-.71-3.32h1.18A11.29,11.29,0,0,1,318.14,184.58Zm6,48a16,16,0,0,1-2.61-5.86L314,190.12l1.27-.31L324,231.93A2.39,2.39,0,0,0,324.16,232.56Z" transform="translate(-94.25 -126.7)"/><path class="cls-1" d="M319.09,182.36a19.38,19.38,0,0,1,2.85,1.59,14.13,14.13,0,0,0-4.35-6.42,14.83,14.83,0,0,0-9.35-3.56l-7-34.13q-1.67-8.22,4.51-13.14H278.15q6.18,4.92,4.52,13.14L272.53,188.7A16.81,16.81,0,0,1,261.84,184a31.42,31.42,0,0,0,1.9,4.82,17.27,17.27,0,0,0,9.51,8.8,17.83,17.83,0,0,0,11.63.23,25.39,25.39,0,0,0,9.74-5.7,74.23,74.23,0,0,1,10.22-8Q312.43,179.59,319.09,182.36ZM283.7,162.73q-.09.08-2.54,11.32.31-1.28-2.29,9.9-1.35,5.78-2.46,9.58c.37-2.59.9-5.83,1.59-9.74q2.06-11.23,1.74-10l1.11-5.62c.52-2.64.92-4.56,1.18-5.78q1.67-7.75,2.46-11.4-.32,1.26,2.3-9.9a19.18,19.18,0,0,0,.55-7,19,19,0,0,0-.4-2.69,14.21,14.21,0,0,1,.8,2.62,20,20,0,0,1-.08,7.28q-2.07,11.33-1.75,10Q284.26,159.47,283.7,162.73Zm8.23-2.85,3.57,17.41q-2.14,1.2-8.32,5.55Zm9.27,20.43-2.54,1.26a9.08,9.08,0,0,0-1.27.71l-1.18.72-5,2.85,4.59-3.41,1.19-.87a5.86,5.86,0,0,1,1.19-.79l2.06-1.27Q298,170,295.57,158.22c-.74-3.91-1.39-7.55-2-10.93q-.94-5.55-1.66-11,1.5,5.39,2.77,10.77,1.28,5,2.54,10.85,2.61,12,4.19,21.77l.08.4Z" transform="translate(-94.25 -126.7)"/><path class="cls-1" d="M301.27,240.4h27.88q-8.25-4.91-9.9-13.22L310.54,185a23.05,23.05,0,0,0-5.7,2.37,44.16,44.16,0,0,0-6.34,4.59l7.29,35.24Q307.53,235.49,301.27,240.4Zm4.52-33.25v.07c0,.19-.33-2.07-1.12-6.8q-.63-4-.87-6.57c.52,1.69,1.13,3.82,1.82,6.41q1.81,7.44,1.58,6.57.56,2.22,1.67,7.68t1.5,7.68a53.13,53.13,0,0,1,.95,6.81,16.46,16.46,0,0,1-.63,4.83,13.35,13.35,0,0,1-.56,1.74c.06-.42.13-1,.24-1.74a17.9,17.9,0,0,0,0-4.75c0,.11-.48-2.09-1.42-6.57q-.56-2.3-1.67-7.68c-.73-3.64-1.22-6.17-1.49-7.61Z" transform="translate(-94.25 -126.7)"/><path class="cls-1" d="M283.38,201.44a17,17,0,0,1-13.06-2l-5.71,27.72q-1.65,8.31-9.89,13.22h27.79q-6.18-4.91-4.43-13.22Zm-10,9.43q-.63,4.66-1.82,10.37c-.52,2.59-.92,4.41-1.18,5.46a24.08,24.08,0,0,1-1.51,4.75,15.61,15.61,0,0,1-2.61,4.12,8.26,8.26,0,0,0,.55-1.19q.48-1.19,1.11-3.24a30.81,30.81,0,0,0,.95-4.75c.21-1.06.56-2.88,1-5.47q1.18-5.78,2.53-10.29.8-2.77,1.43-4.59Q273.71,208,273.4,210.87Z" transform="translate(-94.25 -126.7)"/><path class="cls-1" d="M117.48,245.15a15.61,15.61,0,0,0,2.85-2.37h21.93a17.8,17.8,0,0,0,2.77,2.37ZM137.83,192l-2.38,5.31V169.7l2.38,5.3Zm-2.38,12.27a10.27,10.27,0,0,0,2.38.8v26.84a13,13,0,0,0,.4,3.24,12.65,12.65,0,0,1-2.78-8ZM167.6,169.7v9.57l-9.5,21a13.06,13.06,0,0,1-17.26,6.49h-.08l.55-1.19h.16q10,0,14.09-9.1Zm0,75.45a17.35,17.35,0,0,0,2.77-2.37H192.3a17.42,17.42,0,0,0,2.78,2.37Zm17.89-105.31a12.79,12.79,0,0,1,3.09-8.39h6.5q-7.22,4.92-7.21,13.23v87.25a13,13,0,0,0,.4,3.24,12.65,12.65,0,0,1-2.78-8Z" transform="translate(-94.25 -126.7)"/><path class="cls-1" d="M133.08,227.18V158.61l9.42,21,7.21-16-16.63-36.9H112.73q7.2,4.92,7.21,13.14v87.34q0,8.31-7.21,13.22h27.55Q133.08,235.5,133.08,227.18Zm-7.68-24.47c0,2.43,0,5.38-.08,8.87q-.16,7.29-.16,7.92c0,.89,0,2.08-.08,3.56s-.08,2.53-.08,3.17a21.9,21.9,0,0,1-.55,5.14,22.77,22.77,0,0,1-1.11,3.17c-.21.48-.37.82-.47,1a9.89,9.89,0,0,0,.39-1q.48-1.5.87-3.24a21.82,21.82,0,0,0,.24-5.07c-.05-3.06-.11-5.31-.16-6.73q0-.63-.16-7.92c0-3.49-.08-6.44-.08-8.87q-.07-6.09-.08-19.16t.08-19.24c0-2.43,0-5.38.08-8.87q.17-7.2.16-7.91c.11-4.76.16-7,.16-6.66a22.26,22.26,0,0,0-.24-5.14,31.72,31.72,0,0,0-.87-3.17c-.16-.48-.29-.84-.39-1.11a11.15,11.15,0,0,0,.47,1,22.77,22.77,0,0,1,1.11,3.17,22.3,22.3,0,0,1,.55,5.22c0,.59,0,1.64.08,3.17s.08,2.59.08,3.49q0,.63.16,7.91c.05,3.49.08,6.44.08,8.87q.07,6.25.16,19.24Q125.47,196.61,125.4,202.71Zm2.93-66.27q1.11,1.91,2.61,4.75,2.53,4.68,5.23,10.69t4.59,10.93q1.11,3.09,1.74,5.14-1.11-1.81-2.61-4.75-2.53-4.66-5.23-10.61t-4.59-11C129.33,139.53,128.75,137.81,128.33,136.44Z" transform="translate(-94.25 -126.7)"/><path class="cls-1" d="M183.12,227.18V139.84q0-8.22,7.21-13.14H170l-1.11,2.53L140.2,192.58,136,202h.08a13.09,13.09,0,0,0,17.26-6.49L170,158.61v68.57q0,8.31-7.21,13.22h27.56Q183.12,235.5,183.12,227.18Zm-14.33-85.12q-5.14,12.19-4.59,10.85l-2.7,6q-2,4.59-2.77,6.25-1.89,4.2-5.62,12.28-1,2.28-2.61,5.54-2.22,4.59-2.46,5-3,6.18-5.14,10.3,1.66-4.28,4.27-10.69l2.14-5.07q1.42-3.41,2.46-5.7l5.46-12.35q3-6.5,5.62-12.2c.74-1.52,1.64-3.4,2.69-5.61q2.22-4.53,2.38-5,3-6.18,5.14-10.22Q171.4,135.73,168.79,142.06Zm6.73,62.39c-.05,2.27-.11,5.07-.16,8.4-.05,4.59-.11,7.1-.16,7.52,0,1.26,0,3.38-.16,6.33a18.45,18.45,0,0,1-.63,4.91,18,18,0,0,1-1,3l-.47.95a15.44,15.44,0,0,0,1.18-4,17.84,17.84,0,0,0,.32-4.83c0-2.95-.11-5.07-.16-6.33q0-.63-.08-7.52c-.1-3.33-.16-6.13-.16-8.4q0-5.77-.07-18.29T174,168c0-2.32.06-5.14.16-8.47.05-4.54.08-7,.08-7.52q.24-9.27.48-15.52.32,6.26.47,15.52c.05.42.11,2.93.16,7.52,0,3.33.11,6.15.16,8.47q0,5.79.08,18.21Q175.53,198.67,175.52,204.45Z" transform="translate(-94.25 -126.7)"/><path class="cls-1" d="M420.78,139.37a11.13,11.13,0,0,1,1.1-7.92h5.87q-6.27,4.92-4.52,13.23L433,192l-.63,3.33Zm2.53,105.78a11.47,11.47,0,0,0,2.3-2.37h23a14.3,14.3,0,0,0,2.29,2.37ZM462,140.32a16.85,16.85,0,0,1,5.23-8.87h7.12q-8.24,4.92-9.9,13.23l-18,87.25a14.87,14.87,0,0,0-.16,5.3,10.39,10.39,0,0,1-2.3-9.58Z" transform="translate(-94.25 -126.7)"/><path class="cls-1" d="M441.68,126.7q6.26,4.92,4.51,13.14l-13.85,67.31-13.86-67.31q-1.74-8.22,4.43-13.14H395.12q8.24,4.92,9.9,13.14l18.05,87.34q1.67,8.31-4.51,13.22h27.55q-6.18-4.91-4.51-13.22l18-87.34q1.67-8.22,9.9-13.14ZM428.3,231.14a20.57,20.57,0,0,1-.64,3.32,5,5,0,0,1-.31,1.11c0-.26.13-.63.23-1.11a20.85,20.85,0,0,0,.4-3.4,22.63,22.63,0,0,0-.63-5.15q0,.09-1.58-6.65-.48-2.44-3.65-16.7-4.28-19.87-4.12-19.17-2.92-14.56-3.79-19.16-.79-3.64-1.75-8.86-1.35-7.29-1.5-7.92c-.48-2.75-.87-5-1.19-6.74a30.61,30.61,0,0,0-1.19-5.14,18.82,18.82,0,0,0-1.34-3.09c-.22-.42-.4-.76-.56-1a10.87,10.87,0,0,1,.64,1,17.24,17.24,0,0,1,1.58,3,37.54,37.54,0,0,1,1.5,5.07c.16.74.4,1.79.71,3.16.37,1.69.64,2.85.8,3.49q.15.71,1.74,7.91,1.19,5.16,2,8.8.48,2.13,2,9.42,1.26,6,2.06,9.73,2.61,13.08,3.88,19.24,3.24,17.12,3.16,16.79.8,4.13,1.27,6.73A22.74,22.74,0,0,1,428.3,231.14Zm22.88-90.43c-.05.48-.24,1.51-.55,3.1-.22,1.32-.4,2.42-.56,3.32-.1.42-.58,2.93-1.42,7.52-.64,3.32-1.16,6.15-1.59,8.48q-3.48,17.42-3.64,18.2-1.59,7.44-3.88,18.22-.72,3.4-1.9,8.31c-1,4.54-1.56,7-1.66,7.52q-2.14,9.26-3.64,15.44,1-6.33,2.69-15.68.17-.54,1.42-7.52c.64-3.27,1.19-6.07,1.67-8.39q1.11-5.79,3.64-18.21,1.11-5.39,3.8-18.21c.53-2.33,1.16-5.12,1.9-8.4,1-4.54,1.56-7,1.66-7.44.21-.9.48-2,.8-3.33.36-1.58.57-2.58.62-3a17.16,17.16,0,0,0,.56-4.91,28.15,28.15,0,0,0-.31-3.17l-.25-1.11c.06.27.17.63.32,1.11a14.61,14.61,0,0,1,.56,3.17A17.44,17.44,0,0,1,451.18,140.71Z" transform="translate(-94.25 -126.7)"/></svg>