<svg id="Layer_1" data-name="Layer 1" xmlns="http://www.w3.org/2000/svg" xmlns:xlink="http://www.w3.org/1999/xlink" viewBox="0 0 219.85 260.7"><defs><style>.cls-1,.cls-25,.cls-3{fill:none;}.cls-2{fill:#fff;}.cls-3{stroke:#010101;stroke-width:0.19px;}.cls-25,.cls-3{stroke-miterlimit:10;}.cls-4{fill:#54caf1;}.cls-5{fill:#ee2466;}.cls-6{fill:#f3a5bc;}.cls-7{opacity:0.3;}.cls-8{clip-path:url(#clip-path);}.cls-9{fill:#f5c3da;}.cls-10{clip-path:url(#clip-path-2);}.cls-11{clip-path:url(#clip-path-3);}.cls-12{fill:#fcd2c9;}.cls-13{fill:#4f4583;}.cls-14{fill:#e3d0e6;}.cls-15{fill:#ec8994;}.cls-16{opacity:0.5;}.cls-17{clip-path:url(#clip-path-4);}.cls-18{fill:#f2cce1;}.cls-19{fill:#2a1544;}.cls-20{fill:#8355a3;}.cls-21{fill:#362361;}.cls-22{fill:#fdf16f;}.cls-23{fill:#fdd800;}.cls-24{fill:#3e2670;}.cls-25{stroke:#231f20;stroke-width:0.17px;}.cls-26{fill:#b5a7d2;}.cls-27{opacity:0.1;}.cls-28{clip-path:url(#clip-path-5);}.cls-29{fill:#242568;}.cls-30{clip-path:url(#clip-path-6);}.cls-31{clip-path:url(#clip-path-7);}.cls-32{clip-path:url(#clip-path-8);}.cls-33{clip-path:url(#clip-path-9);}.cls-34{clip-path:url(#clip-path-10);}</style><clipPath id="clip-path" transform="translate(-209.81 -189.56)"><rect class="cls-1" x="339.06" y="242.59" width="44.81" height="160.54"/></clipPath><clipPath id="clip-path-2" transform="translate(-209.81 -189.56)"><rect class="cls-1" x="226.11" y="301.15" width="94" height="21.33"/></clipPath><clipPath id="clip-path-3" transform="translate(-209.81 -189.56)"><rect class="cls-1" x="266.53" y="305.87" width="51.03" height="52.04"/></clipPath><clipPath id="clip-path-4" transform="translate(-209.81 -189.56)"><rect class="cls-1" x="265.12" y="249.92" width="25.48" height="24.42"/></clipPath><clipPath id="clip-path-5" transform="translate(-209.81 -189.56)"><rect class="cls-1" x="246.52" y="394.43" width="13.71" height="34.43"/></clipPath><clipPath id="clip-path-6" transform="translate(-209.81 -189.56)"><rect class="cls-1" x="271.58" y="380.88" width="11.83" height="48.01"/></clipPath><clipPath id="clip-path-7" transform="translate(-209.81 -189.56)"><rect class="cls-1" x="310.89" y="394.7" width="7.49" height="32.53"/></clipPath><clipPath id="clip-path-8" transform="translate(-209.81 -189.56)"><rect class="cls-1" x="339.56" y="394.06" width="19.39" height="35.83"/></clipPath><clipPath id="clip-path-9" transform="translate(-209.81 -189.56)"><rect class="cls-1" x="372.11" y="381.55" width="11.18" height="47.33"/></clipPath><clipPath id="clip-path-10" transform="translate(-209.81 -189.56)"><rect class="cls-1" x="405.25" y="396.36" width="14.89" height="35.24"/></clipPath></defs><path class="cls-2" d="M429.57,407.76A22,22,0,0,0,422,391.12a25.28,25.28,0,0,0-8.11-4.67,28.55,28.55,0,0,0-8.14-1.58l-.51,0c-.14,0-.27,0-.42,0s-.6,0-.91,0a27.71,27.71,0,0,0-10.19,1.88,24,24,0,0,0-5.06,2.76v-1.63a18.15,18.15,0,0,0-.75-5.23,13.36,13.36,0,0,0,.34-6.25,26.2,26.2,0,0,0,8.8-4.63c7.24-5.73,12.09-15,13.3-25.55a47.94,47.94,0,0,0,.33-5.92,57.88,57.88,0,0,0-.47-7.21,51.64,51.64,0,0,0,.91-5.72h.19a2.53,2.53,0,0,0,2.51-2.26c.62-5.85-3.33-18.09-8-24.71a60,60,0,0,0-16.37-16.34,90,90,0,0,0-11.05-6.23q0-1.33,0-2.7c.05-4.49.1-9.13-2-13.62a19.41,19.41,0,0,0-7.39-8.26c-.17-1.94-.5-4.51-.89-6.73-1.05-6.09-2.48-10.27-4.26-12.44-1.13-1.39-6.28-6.34-12.14-7.85a14,14,0,0,0-3.07-7.07,11.91,11.91,0,0,0-7.62-4.09,36.16,36.16,0,0,0,.63-22.11,4.28,4.28,0,0,0-4.13-3.17,4.19,4.19,0,0,0-3.47,1.86c-2.53,3.8-7.22,6.39-11,8.21l-1.55.74c-1.73.82-3.49,1.66-5.19,2.57a18,18,0,0,0-1.67-1.58,13.56,13.56,0,0,0-1.47-1.8c-3.6-3.69-9-5.87-15.93-6.48a28.88,28.88,0,0,0-12.76,1.37c-3.95,1.49-7.18,4-10.29,6.52a62.5,62.5,0,0,1-5.31,3.9,2.53,2.53,0,0,0-2.41-1.86h0a3.33,3.33,0,0,0-2.77,1.46,4.21,4.21,0,0,0-2.7-.79,14.56,14.56,0,0,0-2.6.29,8.43,8.43,0,0,0-5.64,3.65c-.13.21-.26.43-.37.65a8.68,8.68,0,0,0-.9,3c-5.58-5.4-11.41-10.78-16-14.77-8.16-7.1-9.2-7.1-10.2-7.1a2.81,2.81,0,0,0-1,.18,2.74,2.74,0,0,0-1.67,2c-.2,1-.41,2,4,10.39,2.45,4.67,5.85,10.67,9.58,16.88,1.08,1.81,3,5,5.34,8.68-1.2,1.8-2.9,3.67-4.83,3.78h-.17a2.48,2.48,0,0,1-1.78-.7,1.27,1.27,0,0,1-.37-.92,3.92,3.92,0,0,0-.79-3.18,4.41,4.41,0,0,0-3.45-1.61,4.26,4.26,0,0,0-3.9,2.41,8.88,8.88,0,0,0-.61,6.17,2.57,2.57,0,0,0-.77,2,14.2,14.2,0,0,0,14.19,13.16l.77,0a18.31,18.31,0,0,0,4.44-.86c-.26.79-.52,1.57-.77,2.35-1.68,5.16-3.27,10-6,14.39A56.27,56.27,0,0,1,228.62,276a98.41,98.41,0,0,0-7.46,8.39,26.35,26.35,0,0,0-.71,33,16.8,16.8,0,0,0,11.2,6.8,31.36,31.36,0,0,0,7.15.78,40.84,40.84,0,0,0,4.36-.25c5.67-.62,12.46-.91,19.65-1.22l4.72-.21-.06,0a15.48,15.48,0,0,1-4.31,1,35.56,35.56,0,0,1-4.11,0,30.25,30.25,0,0,0-6,.1A17.54,17.54,0,0,0,238.68,338a2.54,2.54,0,0,0,1.24,2.69,2.68,2.68,0,0,0-.07.27c-.87-.17-1.73-.32-2.58-.44h-.08a25.94,25.94,0,0,0-16.43,4,21.2,21.2,0,0,0-9.74,14,2.53,2.53,0,0,0,1.49,2.77,25.61,25.61,0,0,0,2.6,17.28,20.91,20.91,0,0,0,6.58,7.36h-2.36a9.42,9.42,0,0,0-9.42,9.42v1a9.41,9.41,0,0,0,4.05,7.74v16.29a9.43,9.43,0,0,0-4.05,7.75v1a9.42,9.42,0,0,0,9.42,9.43h18.93a9.42,9.42,0,0,0,5.46-1.74c.25.12.52.22.78.33l.24.11c.41.17.82.32,1.25.46l.26.07a17.6,17.6,0,0,0,5.2.77h8.79a9,9,0,0,0,2-.24,9.16,9.16,0,0,0,2,.24h19.12a9.38,9.38,0,0,0,6.75-2.86,29.58,29.58,0,0,0,15.38,3.87,24.38,24.38,0,0,0,8.55-1.47,23,23,0,0,0,4.49-2.25A8.44,8.44,0,0,0,320,435c.37-.28.73-.56,1.06-.85s.85-.77,1.25-1.18a24.8,24.8,0,0,0,8,4.8,29.85,29.85,0,0,0,8.59,1.71,1,1,0,0,0,.17,0c.65,0,1.32.06,2,.06a30.91,30.91,0,0,0,10.76-1.8,27.69,27.69,0,0,0,2.61-1.12v4.05a9.43,9.43,0,0,0,9.43,9.43h3.05c.53,0,1-.06,1.54-.11a10,10,0,0,0,1.35.11h.94a9.57,9.57,0,0,0,2.4-.31,9.57,9.57,0,0,0,2.4.31h1c.19,0,.38,0,.58,0s.24,0,.37,0h3a13.74,13.74,0,0,0,2.92-.34,9.07,9.07,0,0,0,2.35.34h.9a9.28,9.28,0,0,0,3.38-.65h0a13.79,13.79,0,0,0,4.37.71,13.28,13.28,0,0,0,2.39-.22,9.49,9.49,0,0,0,1.42.15h.91a10.16,10.16,0,0,0,1.84-.18,10,10,0,0,0,1.83.18h.91a9.18,9.18,0,0,0,2-.24,12.4,12.4,0,0,0,5.51,0,9.16,9.16,0,0,0,2,.24h.92a9.4,9.4,0,0,0,7-3.08,11.89,11.89,0,0,0,2.61-1.64,11.66,11.66,0,0,0,1.45-16.26c.29-.48.56-1,.81-1.47a18.4,18.4,0,0,0,1.85-8h0v0a.52.52,0,0,0,0-.11,8.62,8.62,0,0,0-.15-1.53c0-.22-.1-.44-.15-.66s-.06-.29-.1-.44a9.24,9.24,0,0,0,1.07-2.42s.38-1.3.42-1.45c.16-.63.3-1.37.42-2.18a21.26,21.26,0,0,0,.2-3h0v0" transform="translate(-209.81 -189.56)"/><path class="cls-3" d="M429.57,407.76A22,22,0,0,0,422,391.12a25.28,25.28,0,0,0-8.11-4.67,28.55,28.55,0,0,0-8.14-1.58l-.51,0c-.14,0-.27,0-.42,0s-.6,0-.91,0a27.71,27.71,0,0,0-10.19,1.88,24,24,0,0,0-5.06,2.76v-1.63a18.15,18.15,0,0,0-.75-5.23,13.36,13.36,0,0,0,.34-6.25,26.2,26.2,0,0,0,8.8-4.63c7.24-5.73,12.09-15,13.3-25.55a47.94,47.94,0,0,0,.33-5.92,57.88,57.88,0,0,0-.47-7.21,51.64,51.64,0,0,0,.91-5.72h.19a2.53,2.53,0,0,0,2.51-2.26c.62-5.85-3.33-18.09-8-24.71a60,60,0,0,0-16.37-16.34,90,90,0,0,0-11.05-6.23q0-1.33,0-2.7c.05-4.49.1-9.13-2-13.62a19.41,19.41,0,0,0-7.39-8.26c-.17-1.94-.5-4.51-.89-6.73-1.05-6.09-2.48-10.27-4.26-12.44-1.13-1.39-6.28-6.34-12.14-7.85a14,14,0,0,0-3.07-7.07,11.91,11.91,0,0,0-7.62-4.09,36.16,36.16,0,0,0,.63-22.11,4.28,4.28,0,0,0-4.13-3.17,4.19,4.19,0,0,0-3.47,1.86c-2.53,3.8-7.22,6.39-11,8.21l-1.55.74c-1.73.82-3.49,1.66-5.19,2.57a18,18,0,0,0-1.67-1.58,13.56,13.56,0,0,0-1.47-1.8c-3.6-3.69-9-5.87-15.93-6.48a28.88,28.88,0,0,0-12.76,1.37c-3.95,1.49-7.18,4-10.29,6.52a62.5,62.5,0,0,1-5.31,3.9,2.53,2.53,0,0,0-2.41-1.86h0a3.33,3.33,0,0,0-2.77,1.46,4.21,4.21,0,0,0-2.7-.79,14.56,14.56,0,0,0-2.6.29,8.43,8.43,0,0,0-5.64,3.65c-.13.21-.26.43-.37.65a8.68,8.68,0,0,0-.9,3c-5.58-5.4-11.41-10.78-16-14.77-8.16-7.1-9.2-7.1-10.2-7.1a2.81,2.81,0,0,0-1,.18,2.74,2.74,0,0,0-1.67,2c-.2,1-.41,2,4,10.39,2.45,4.67,5.85,10.67,9.58,16.88,1.08,1.81,3,5,5.34,8.68-1.2,1.8-2.9,3.67-4.83,3.78h-.17a2.48,2.48,0,0,1-1.78-.7,1.27,1.27,0,0,1-.37-.92,3.92,3.92,0,0,0-.79-3.18,4.41,4.41,0,0,0-3.45-1.61,4.26,4.26,0,0,0-3.9,2.41,8.88,8.88,0,0,0-.61,6.17,2.57,2.57,0,0,0-.77,2,14.2,14.2,0,0,0,14.19,13.16l.77,0a18.31,18.31,0,0,0,4.44-.86c-.26.79-.52,1.57-.77,2.35-1.68,5.16-3.27,10-6,14.39A56.27,56.27,0,0,1,228.62,276a98.41,98.41,0,0,0-7.46,8.39,26.35,26.35,0,0,0-.71,33,16.8,16.8,0,0,0,11.2,6.8,31.36,31.36,0,0,0,7.15.78,40.84,40.84,0,0,0,4.36-.25c5.67-.62,12.46-.91,19.65-1.22l4.72-.21-.06,0a15.48,15.48,0,0,1-4.31,1,35.56,35.56,0,0,1-4.11,0,30.25,30.25,0,0,0-6,.1A17.54,17.54,0,0,0,238.68,338a2.54,2.54,0,0,0,1.24,2.69,2.68,2.68,0,0,0-.07.27c-.87-.17-1.73-.32-2.58-.44h-.08a25.94,25.94,0,0,0-16.43,4,21.2,21.2,0,0,0-9.74,14,2.53,2.53,0,0,0,1.49,2.77,25.61,25.61,0,0,0,2.6,17.28,20.91,20.91,0,0,0,6.58,7.36h-2.36a9.42,9.42,0,0,0-9.42,9.42v1a9.41,9.41,0,0,0,4.05,7.74v16.29a9.43,9.43,0,0,0-4.05,7.75v1a9.42,9.42,0,0,0,9.42,9.43h18.93a9.42,9.42,0,0,0,5.46-1.74c.25.12.52.22.78.33l.24.11c.41.17.82.32,1.25.46l.26.07a17.6,17.6,0,0,0,5.2.77h8.79a9,9,0,0,0,2-.24,9.16,9.16,0,0,0,2,.24h19.12a9.38,9.38,0,0,0,6.75-2.86,29.58,29.58,0,0,0,15.38,3.87,24.38,24.38,0,0,0,8.55-1.47,23,23,0,0,0,4.49-2.25A8.44,8.44,0,0,0,320,435c.37-.28.73-.56,1.06-.85s.85-.77,1.25-1.18a24.8,24.8,0,0,0,8,4.8,29.85,29.85,0,0,0,8.59,1.71,1,1,0,0,0,.17,0c.65,0,1.32.06,2,.06a30.91,30.91,0,0,0,10.76-1.8,27.69,27.69,0,0,0,2.61-1.12v4.05a9.43,9.43,0,0,0,9.43,9.43h3.05c.53,0,1-.06,1.54-.11a10,10,0,0,0,1.35.11h.94a9.57,9.57,0,0,0,2.4-.31,9.57,9.57,0,0,0,2.4.31h1c.19,0,.38,0,.58,0s.24,0,.37,0h3a13.74,13.74,0,0,0,2.92-.34,9.07,9.07,0,0,0,2.35.34h.9a9.28,9.28,0,0,0,3.38-.65h0a13.79,13.79,0,0,0,4.37.71,13.28,13.28,0,0,0,2.39-.22,9.49,9.49,0,0,0,1.42.15h.91a10.16,10.16,0,0,0,1.84-.18,10,10,0,0,0,1.83.18h.91a9.18,9.18,0,0,0,2-.24,12.4,12.4,0,0,0,5.51,0,9.16,9.16,0,0,0,2,.24h.92a9.4,9.4,0,0,0,7-3.08,11.89,11.89,0,0,0,2.61-1.64,11.66,11.66,0,0,0,1.45-16.26c.29-.48.56-1,.81-1.47a18.4,18.4,0,0,0,1.85-8h0v0a.52.52,0,0,0,0-.11,8.62,8.62,0,0,0-.15-1.53c0-.22-.1-.44-.15-.66s-.06-.29-.1-.44a9.24,9.24,0,0,0,1.07-2.42s.38-1.3.42-1.45c.16-.63.3-1.37.42-2.18a21.26,21.26,0,0,0,.2-3h0Z" transform="translate(-209.81 -189.56)"/><path class="cls-4" d="M285.64,313.86l0,0a33.72,33.72,0,0,1-2.52,4.51,26.26,26.26,0,0,1-7.25,7.08,22.42,22.42,0,0,1-8.35,3.41c-3.55.65-7.16-.07-10.73.36a17.35,17.35,0,0,0-14,12A18.21,18.21,0,0,0,248,359c2.49,2.28,6,4.18,9.44,3.59a6.59,6.59,0,0,0,5.15-6.45,1.23,1.23,0,0,0-2.4-.39c-.69,2.62-3.26,2.7-5.52,2l-.34-.32c-.31-.3-.64-.56-.94-.86a.89.89,0,0,0,0-.28,26.27,26.27,0,0,1-.86-4.1,20.44,20.44,0,0,1,.7-2.38c1.57-2.08,3.32-3.91,6.18-3.54,2.71.36,5.15,1.91,7.73,2.76a24.94,24.94,0,0,0,4.3,1c.24-.53.49-1.06.75-1.58l.44-1.09a118.92,118.92,0,0,1,6.58-13.82,2.77,2.77,0,0,1,.54-.66l1.56-3.52q2.19-7.74,4.36-15.48" transform="translate(-209.81 -189.56)"/><path class="cls-2" d="M273,346.33a7.06,7.06,0,0,1-2.14.26c-4.23-.17-7.28-3.77-11.12-5.13-3-1.07-6.13-.72-8.15,2s-3.26,6.49-1.55,9.51c.19.33.65.05.51-.29-1.72-3.95.92-10.64,5.54-11,3.79-.3,6.83,2.55,10,4.23a9.94,9.94,0,0,0,6.59,1.26c.11-.28.24-.56.35-.84" transform="translate(-209.81 -189.56)"/><path class="cls-2" d="M281.79,327.52a17.06,17.06,0,0,1-11,6.52c-2.87.41-5.55-.22-8.33-.89-2.27-.55-4.57-1-6.85-.21-8.6,2.88-13,14.36-7.76,22.05,0,0,.05,0,0,0a14.65,14.65,0,0,1,.61-15.6,15.3,15.3,0,0,1,6-5.18c2.84-1.33,5.8-.66,8.71.06,4.06,1,7.94,1.12,11.87-.53a17.49,17.49,0,0,0,6.33-4.58c.15-.54.31-1.08.46-1.62" transform="translate(-209.81 -189.56)"/><path class="cls-5" d="M278.42,317.17c-3.49,5.32-8.82,9.14-15.35,9.36-3.59.13-7.22-.63-10.77.24a15.36,15.36,0,0,0-7,3.94,13,13,0,0,0-4,7.79c0,.17.26.2.31,0,1.72-5.62,6.2-10.43,12.2-11.27,3.61-.51,7.25.31,10.87-.18a18.67,18.67,0,0,0,7.74-2.92,16.61,16.61,0,0,0,6.14-6.89.11.11,0,0,0-.19-.11" transform="translate(-209.81 -189.56)"/><path class="cls-6" d="M272.6,347.34c.15-.37.31-.73.46-1.1a33.66,33.66,0,0,1-7.85,3,29,29,0,0,1-11.51.54c-4.58-.72-8.65-3.1-13.16-4.08-7.95-1.73-17.19,1.64-21.95,8.34s-4.83,16.29-.93,23.3c2.09,3.74,5.56,7.48,10,8.22a8.32,8.32,0,0,0,8.89-5.49c.5-1.64-1.72-3-2.75-1.46-1.91,2.81-5.05,1.83-7.5,0-.08-.17-.17-.35-.27-.53-.26-.48-.54-.93-.78-1.41a1,1,0,0,0,.09-.34,32.85,32.85,0,0,1,.64-5.23,24.87,24.87,0,0,1,1.83-2.54c2.76-1.8,5.63-3.24,8.93-1.6,3.15,1.57,5.47,4.44,8.25,6.52,4.39,3.31,10.15,6.13,15.65,4.78a2.22,2.22,0,0,1,.2-.58c.11-3.16,2-7,3-9,.83-1.81,8.67-20.93,8.81-21.29" transform="translate(-209.81 -189.56)"/><path class="cls-2" d="M263.12,369.64a.07.07,0,0,0,.08,0l.15-.07c.08-.18.16-.36.24-.52a.21.21,0,0,0-.17-.16c-.84-.14-.6,0-1.26.43-1.27.86-2.14,1.93-3.61,2.57a10.8,10.8,0,0,1-8,.27c-5.06-2-7.28-7.53-11.37-10.76-3.2-2.53-7.13-3.43-10.69-1.06-3.41,2.27-6.62,6.33-5.79,10.63a.37.37,0,0,0,.73-.13c-.45-5.4,5.5-12.24,11.23-10.72,4.71,1.25,7.24,5.9,10.36,9.22,2.48,2.65,5.53,4.49,9.26,4.42a11.71,11.71,0,0,0,4.66-1.06c.47-.21,3.84-2.38,4.19-3.11v0" transform="translate(-209.81 -189.56)"/><path class="cls-2" d="M269.27,355.47a22,22,0,0,1-13.75,1.78c-3.65-.72-6.63-2.6-9.72-4.57-2.53-1.61-5.15-3.07-8.22-3.12-11.6-.2-21.62,11.59-18.46,22.9,0,0,.06,0,0,0a18.11,18.11,0,0,1,7.13-18.26,19.49,19.49,0,0,1,9.36-3.63c4-.39,7.31,1.65,10.54,3.73,4.51,2.9,9.17,4.67,14.6,4.36a22.43,22.43,0,0,0,8.08-2l.39-1.15" transform="translate(-209.81 -189.56)"/><path class="cls-5" d="M274.07,341.85a17.45,17.45,0,0,1-13.29,5.42c-4.92-.06-9.72-1.46-14.45-2.69-4.43-1.16-9-2.45-13.58-2A23.83,23.83,0,0,0,221,347.15a19.1,19.1,0,0,0-7.53,11.7c-.1.54.72.77.82.23C216,350,224.7,344,233.6,343.39c4.67-.3,9.29,1.17,13.76,2.34s9.06,2.38,13.72,2.4a18.3,18.3,0,0,0,13.59-5.67c.38-.4-.22-1-.6-.61" transform="translate(-209.81 -189.56)"/><path class="cls-2" d="M381.69,348.68a79.48,79.48,0,0,0-8.16-18.61c-6.13-10.5-14.25-20.09-18.43-31.38-3.33-9-4-18.58-4.63-28.08a35.46,35.46,0,0,0,.9-6.78c.39-12.74-9.71-32.65-17.93-42.07-9.16-10.5-18.5-16.25-31.88-16.81S270.2,211.44,261.37,222c-14.89,17.8-13.9,32.13-21.34,44.16-6.16,9.94-9.35,10.71-16.54,19.83s-7.56,20.4-.65,30c5.24,7.25,13.93,6.75,27.11,5.49,14.62-1.4,23.53-.82,33.57-2.26-3.7,16.18-11,24.9-17.78,40.46-3.86,8.8-9.26,25.82-4.16,34.25,2.69,4.47,7.25,7.64,11.92,10.22a83.66,83.66,0,0,0,56.18,8.68c18.79-3.82,35.78-14.56,46.67-29.55,8-10.93,8.56-22.92,5.34-34.57" transform="translate(-209.81 -189.56)"/><g class="cls-7"><g class="cls-8"><path class="cls-9" d="M340.89,244a4.4,4.4,0,0,1,2.77-1.39c3.47-.42,5.6,4.22,6.67,6.83,6.2,15.11,0,31.35,4.67,46.63,4,13.28,13,24.45,20.1,36.19s10.63,24.23,7.82,37.89A33.45,33.45,0,0,1,377.84,382c-6.13,9.2-14.56,15.42-24.27,20.43-5.28,2.73-4.53-3.54-2.51-6.34,1.82-2.49,4.46-4.24,6.27-6.74a44.44,44.44,0,0,0,8.78-24.66c.54-18.72-10.06-34.68-18.23-50.66-3.72-7.27-6.86-15-7.38-23.19-.69-10.66,3.1-21.53.63-31.92-.65-2.75-1.74-5.41-2-8.22-.23-2.25.21-5,1.77-6.72" transform="translate(-209.81 -189.56)"/></g></g><g class="cls-7"><g class="cls-10"><path class="cls-9" d="M319,303.82c.79-1.29,1.59-2.81.9-2.65-.84.2-2.8,2.32-6,4-1.95,1-3.62,1.91-5.58,2.92-3.92,2-13.17,4.65-17.6,4.91-8.25.5-12.9-.77-21.13,0s-15.31,3-23.59,4.23c-3.32.5-6.59,1.35-9.92,1.78a44,44,0,0,1-9.86-.25c-.5,0,5.11,4.72,17.09,3.41,15.22-1.68,39.06-1,50.62-4.29.66-.18,7.29-2.31,7.27-2.59a.31.31,0,0,1,0,.1l8.09-3.86a75.41,75.41,0,0,0,9.75-7.8" transform="translate(-209.81 -189.56)"/></g></g><g class="cls-7"><g class="cls-11"><path class="cls-9" d="M317.5,305.87c-1.47.3-2.33,1.76-3.3,2.9a16.25,16.25,0,0,1-5.44,3.84c-15.29,7.25-25.67,6.81-25.67,6.81-1.47,3.09-2.16,6.93-3.23,10.17-3.1,9.4-13,27.4-13.33,28.24a14.7,14.7,0,0,0,2.3.07c6.42-1,11.73-4.53,17.05-8.28a87.35,87.35,0,0,0,15.94-14,81.41,81.41,0,0,0,10.82-16.4c1.45-2.84,2.78-5.75,4-8.7a8.68,8.68,0,0,0,.9-4.61" transform="translate(-209.81 -189.56)"/></g></g><path class="cls-12" d="M280.48,369.36a.14.14,0,0,1,.27,0c0,.77.19.72.12,1.42s-.17,1.26-.25,1.88a9.8,9.8,0,0,1-.58,3,.32.32,0,0,1-.57-.09,8.76,8.76,0,0,1,.21-2.79c.08-.55.16-1.1.23-1.65a10.29,10.29,0,0,1,.57-1.81" transform="translate(-209.81 -189.56)"/><path class="cls-12" d="M276.08,369.85c.09-.46.79-.26.7.2-.51,2.58-1.1,5.56-2.64,7.74a.17.17,0,0,1-.31-.13c.56-2.65,1.71-5.13,2.25-7.81" transform="translate(-209.81 -189.56)"/><path class="cls-12" d="M268.82,375.15a18.33,18.33,0,0,1,1.33-2.32s.05,0,.05,0a5.43,5.43,0,0,1-.72,2.5,4.24,4.24,0,0,1-1.58,2.08.15.15,0,0,1-.21-.16,7.19,7.19,0,0,1,1.13-2.11" transform="translate(-209.81 -189.56)"/><path class="cls-12" d="M279,383.2c0,.89.06,1.78,0,2.67a3.44,3.44,0,0,1-.26,2,.13.13,0,0,1-.23,0,3.45,3.45,0,0,1-.15-2c0-.89.12-1.78.2-2.67a.2.2,0,0,1,.4,0" transform="translate(-209.81 -189.56)"/><path class="cls-12" d="M283.37,381a27.58,27.58,0,0,1,.38,4.8c0,.36-.6.47-.66.08a27.7,27.7,0,0,1-.19-4.82c0-.26.43-.34.47-.06" transform="translate(-209.81 -189.56)"/><path class="cls-12" d="M271.9,385.06a10,10,0,0,0,.83-2.67c0-.27.5-.2.48.07-.13,1.74-.72,4.06-2.31,5-.17.11-.31-.1-.25-.26.34-.77.89-1.42,1.25-2.18" transform="translate(-209.81 -189.56)"/><path class="cls-12" d="M266.2,383.51a10.28,10.28,0,0,0,1-1.83.17.17,0,0,1,.33.1,7.34,7.34,0,0,1-.69,2.09,2.68,2.68,0,0,1-1.2,1.38c-.19.07-.34-.14-.3-.31a5.05,5.05,0,0,1,.9-1.43" transform="translate(-209.81 -189.56)"/><path class="cls-12" d="M284.45,373.73a11.73,11.73,0,0,1,.08,1.78c0,.49.09.95-.26,1.34a.13.13,0,0,1-.19,0c-.33-.36-.27-.77-.28-1.23a13.83,13.83,0,0,1,.05-1.82c0-.3.55-.45.6-.07" transform="translate(-209.81 -189.56)"/><path class="cls-12" d="M272.09,368.56a11.78,11.78,0,0,0,.85-2.11c.1-.28.6-.25.56.08-.17,1.29-.83,3.22-2.06,3.86-.15.08-.37-.05-.3-.23a10.37,10.37,0,0,1,.95-1.6" transform="translate(-209.81 -189.56)"/><path class="cls-12" d="M279.1,362.6c.41,1.55.59,3.76-.61,5.06-.09.09-.29,0-.27-.12.06-.68.34-1.32.46-2a9.8,9.8,0,0,0,.08-2.86c0-.22.29-.32.34-.09" transform="translate(-209.81 -189.56)"/><path class="cls-12" d="M285.82,367.92a0,0,0,0,1,.05,0,19.82,19.82,0,0,1,0,2.18,10,10,0,0,1,0,2c0,.19-.29.19-.38.05a3.87,3.87,0,0,1-.31-2.16,3.73,3.73,0,0,1,.6-2.06" transform="translate(-209.81 -189.56)"/><path class="cls-12" d="M288.42,379.43c.58,2.23,1.05,4.47,1.55,6.72.12.51-.67.71-.78.2-.47-2.25-1-4.49-1.36-6.76-.07-.38.49-.54.59-.16" transform="translate(-209.81 -189.56)"/><path class="cls-12" d="M369,352.74h0c.79.83,1.06,2.24,1.7,3.24s1.92,1.93,2.66,3a.19.19,0,0,1-.21.29c-1.25-.38-2.25-1.75-2.94-2.82s-1.58-2.59-1.23-3.76" transform="translate(-209.81 -189.56)"/><path class="cls-12" d="M364.73,353.54a8.59,8.59,0,0,1,1.91,5.31.28.28,0,0,1-.54.08,47.69,47.69,0,0,0-1.5-5.31.08.08,0,0,1,.13-.08" transform="translate(-209.81 -189.56)"/><path class="cls-12" d="M362.51,360.89a11,11,0,0,1,.46,3.73c0,.18-.26.13-.31,0a10.84,10.84,0,0,1-.48-3.68.17.17,0,0,1,.33-.05" transform="translate(-209.81 -189.56)"/><path class="cls-12" d="M375.63,366.69a15.52,15.52,0,0,1,1.05,1.92c.23.46.67,1,.49,1.49,0,.07-.11.14-.19.11-.54-.2-.68-.89-.91-1.38a16.13,16.13,0,0,1-.81-2,.2.2,0,0,1,.37-.16" transform="translate(-209.81 -189.56)"/><path class="cls-12" d="M369.44,366a2.67,2.67,0,0,1,.88.89,6,6,0,0,1,.58,1.33,3.54,3.54,0,0,1,.08,2.44.18.18,0,0,1-.32,0c-.24-.71-.18-1.49-.38-2.22a16.85,16.85,0,0,0-.9-2.36s0-.07.06,0" transform="translate(-209.81 -189.56)"/><path class="cls-12" d="M376.67,362.61c.33.17.45.11.72.36s.66.66,1,1c.52.55,1.22,1,1.35,1.82,0,.1-.06.21-.18.18-.75-.19-1.18-.91-1.68-1.47-.28-.32-.56-.63-.83-1s-.23-.47-.39-.88c0,0,0,0,0,0" transform="translate(-209.81 -189.56)"/><path class="cls-12" d="M364,371.46a11.25,11.25,0,0,0,.17-2.84.24.24,0,0,1,.46-.06,6,6,0,0,1-1.17,5.49c-.13.12-.36,0-.3-.16.25-.82.64-1.59.84-2.43" transform="translate(-209.81 -189.56)"/><path class="cls-6" d="M332.51,355.92l-.33-.47c-1-1.39-3.07-3.52-3.7-3.17s-.41,5.46-.85,5.67-5.31,2.6-5.38,3.18,4,2,4.49,2.37-.34,5.61.05,6.15,4.59-4.6,5.31-4.83,5,2.23,5.78,1.83-2-5.26-1.95-5.84,2.8-4.41,2.94-5.39-1.92-.28-3.17,0-1.62.44-1.62.44-1.21.54-1.57,0" transform="translate(-209.81 -189.56)"/><path class="cls-6" d="M343.82,341.83s0-.15,0-.39c-.16-1.15-.71-3.09-1.19-3s-1.93,3.33-2.26,3.34-3.93.13-4.14.48,1.76,2.39,1.9,2.77-1.94,3.44-1.88,3.89,4.12-1.61,4.62-1.55,2.22,2.8,2.82,2.78.45-3.88.67-4.23,3-2,3.4-2.58-1-.71-1.88-.86-1.09-.18-1.09-.18-.87,0-.93-.43" transform="translate(-209.81 -189.56)"/><path class="cls-13" d="M319.48,303.78a9.35,9.35,0,0,0-2.29,2c-.8.78-1.62,1.54-2.47,2.26a43.7,43.7,0,0,1-5.84,4.18,46.67,46.67,0,0,1-15.06,5.64,59.53,59.53,0,0,1-10.73,1,.57.57,0,0,0,0,1.13c11.24-.13,22.77-3.22,31.43-10.68,1-.85,1.94-1.72,2.84-2.66a7.8,7.8,0,0,0,2.13-2.85,0,0,0,0,0,0,0" transform="translate(-209.81 -189.56)"/><path class="cls-13" d="M258.35,303.75c-.55-.06-.83,1.37-1,1.74-.33.88-.68,1.74-1.08,2.58a14.27,14.27,0,0,1-2.63,3.92,8.15,8.15,0,0,1-8.43,2,.66.66,0,0,0-.35,1.27,9.45,9.45,0,0,0,7.87-.9,13.46,13.46,0,0,0,4.77-6.41c.18-.43,1.54-4.08.83-4.16" transform="translate(-209.81 -189.56)"/><path class="cls-13" d="M255.85,301.85a2.79,2.79,0,0,0,.79.61,10.71,10.71,0,0,1,.92.71,6.15,6.15,0,0,1,1.33,1.55,3.64,3.64,0,0,1-.16,3.81c-.1.17.17.32.27.15a3.94,3.94,0,0,0,.22-3.95,6,6,0,0,0-1.37-1.64,8.92,8.92,0,0,0-.92-.7,2.44,2.44,0,0,0-1.07-.55h0" transform="translate(-209.81 -189.56)"/><path class="cls-14" d="M308.05,306.3c.05,0,0,.09,0,.08a0,0,0,1,1,0-.08" transform="translate(-209.81 -189.56)"/><path class="cls-13" d="M236.68,297.19c-2-1.9-6.08-1.08-7.83.7-.8.8.29,2.19,1.11,1.39a5.12,5.12,0,0,1,2.94-1.46,14.08,14.08,0,0,1,3.31.23c.41,0,.81-.52.47-.86" transform="translate(-209.81 -189.56)"/><path class="cls-15" d="M286.35,287.5a3.13,3.13,0,0,1,.78-2.66,5.28,5.28,0,0,1,1.86-3.09c1.88-1.59,5.65-3.23,7.68-1a2.86,2.86,0,0,1,.43,3.18c-.35,2.31-2.72,3.95-4.64,5s-5.42,1.37-6.11-1.43" transform="translate(-209.81 -189.56)"/><g class="cls-16"><g class="cls-17"><path class="cls-18" d="M266.39,253a9.48,9.48,0,0,1,5.44-2.53,22.47,22.47,0,0,1,6.74-.38,12.32,12.32,0,0,1,5.82,2.8c6.66,5.28,8.52,14.8,2.85,21.28-.47.55-1.23-.15-1-.67a16,16,0,0,0,1.7-10.06,14,14,0,0,0-4.3-7.72,14.72,14.72,0,0,0-3.65-2.54,12.12,12.12,0,0,0-6.24-.69,18.44,18.44,0,0,0-5,.89c-1.58.58-1.94,2-3.29,2.54a.08.08,0,0,1-.1,0c-.71-1,.28-2.16,1-2.9" transform="translate(-209.81 -189.56)"/></g></g><path class="cls-2" d="M266,277.59a11.24,11.24,0,0,1-2-3.16c-2.65-6.4-.65-16.15,6.14-19.2,3.31-1.49,7.23-1.87,10.35-.22,6,3.19,7.48,12.42,5,18.34a13.68,13.68,0,0,1-7.79,7.78c-4.11,1.4-8.79-.37-11.67-3.54" transform="translate(-209.81 -189.56)"/><path class="cls-19" d="M282.73,277.46a15.4,15.4,0,0,1,1.49-1.92,12.74,12.74,0,0,0,1.53-3.12,14.27,14.27,0,0,0,.12-6.69c-.68-4.36-3.1-8.78-7.49-10.33a11.4,11.4,0,0,0-9.8,1.12c-1.23.75-2.1,1-2.91,2.35a14.88,14.88,0,0,0-2.36,6.62.51.51,0,1,1-1-.14c.47-2.63.53-5.28,2-7.57a15.55,15.55,0,0,1,2.89-3.56c3.42-2.71,8.91-2.78,12.75-1,4.87,2.2,7.86,7.35,8.23,12.58a16.51,16.51,0,0,1-1.61,7.53c-.69,1.56-2.05,3.8-3.79,4.28a.08.08,0,0,1-.09-.11" transform="translate(-209.81 -189.56)"/><path class="cls-20" d="M263.09,265.64c.2-3.35,1.58-7,4.19-8.67,3.26-2.1,8.43-2.93,11.62-.26,6,5,5.64,16.65-.75,21.25a10.41,10.41,0,0,1-8.08,1.6c-6-1.34-7.28-8.72-7-13.92" transform="translate(-209.81 -189.56)"/><path class="cls-21" d="M262.89,265.66c.4-4.24,2.19-8.17,6.52-9.86,2.35-.92,5.41-1.29,7.77-.21a11.65,11.65,0,0,1,4.14,4.14,8.22,8.22,0,0,1,1.15,2.85c.36,1.74.17,1.71-1.28,2.5l-.57.35a2.25,2.25,0,0,1-.46.41c-.5.32-.89,2.44-1.13,3.07a13.42,13.42,0,0,1-3.69,5.46,11.12,11.12,0,0,1-2.94,1.94c-.94.38-1.35.29-1.76,1.34a.53.53,0,0,1-.11.14,2.35,2.35,0,0,1-.75,1.07c-1.76,1.14-4.52-3-5.2-4.13a15.21,15.21,0,0,1-1.69-9.07" transform="translate(-209.81 -189.56)"/><path class="cls-19" d="M262.88,265.78a13.16,13.16,0,0,1,2.8-7.39,11.19,11.19,0,0,1,7.82-3.52,9.73,9.73,0,0,1,3,.52c.84.3,3.1,1.16,1.88,2.28s-1.75,2.85-2.79,4.28a20.65,20.65,0,0,1-3.4,3.71,12.11,12.11,0,0,1-5.3,2.61,6.45,6.45,0,0,1-2.9-.06c-1.33-.34-1.25-1.16-1.13-2.43" transform="translate(-209.81 -189.56)"/><path class="cls-2" d="M278.5,258.49a3.55,3.55,0,0,1,1,3.34c-.29,1.28-1.77,1.32-2.73.78a3.86,3.86,0,0,1-1.76-3.08c-.06-1.21,1.23-1.71,2.26-1.57a2.28,2.28,0,0,1,1.19.53" transform="translate(-209.81 -189.56)"/><path class="cls-2" d="M266,269.88c.06-.95.79-1.81,1.89-1.4a2,2,0,0,1,1.06,2.58c-.51,1.14-2.07.79-2.66-.08a1.81,1.81,0,0,1-.29-1.1" transform="translate(-209.81 -189.56)"/><path class="cls-22" d="M408.5,340.34a71,71,0,0,0-3.81-21.5,1.39,1.39,0,0,0-.61-.91c-1.71-.73-1.49,4.87-1.53,5.49-.45,5.9-.8,12-2.65,17.63A23.17,23.17,0,0,1,392,352.77c-3.34,2.44-7.59,3.71-10.43,6.82a15,15,0,0,0-3.48,13.19,1.89,1.89,0,0,0,1.86,1.78c5.61,1,11.43-1.2,15.9-4.74,7.2-5.7,11.3-14.72,12.36-23.85a50.45,50.45,0,0,0,.31-5.63" transform="translate(-209.81 -189.56)"/><path class="cls-2" d="M393.26,365.12a30.86,30.86,0,0,0,5.12-5.65,37.74,37.74,0,0,0,6.07-15.73s0,0,0,0a30,30,0,0,1-11.92,23.36c-1.91,1.45-4.29,3.1-7.16,2.23-.42-.13-.45-.76,0-.73,3.34.22,5.69-1.61,7.87-3.49" transform="translate(-209.81 -189.56)"/><path class="cls-5" d="M367.49,277c2.27.67,4.52,1.18,6.73,2.06a60.8,60.8,0,0,1,7.24,3.46,69.12,69.12,0,0,1,12.37,8.37,63.33,63.33,0,0,1,9.9,11.22A44.05,44.05,0,0,1,409,313a36.12,36.12,0,0,1,2.35,11.88c0,.32.52.41.58.08.62-3.36-.6-7.22-1.56-10.39a49.84,49.84,0,0,0-5.15-11.81,58.43,58.43,0,0,0-9.43-11.32,71.36,71.36,0,0,0-20.36-12.66c-2.45-1-5.26-2-7.92-2a.09.09,0,0,0,0,.17" transform="translate(-209.81 -189.56)"/><path class="cls-4" d="M384.47,373.15c-1.26-1.64-4.13-.4-3.36,1.68,1.43,3.85-.78,7.15-6,7.26-3.35.07-8.33-3.93-8.12-8.42.17-4,.76-7.81,4.7-9.91,3.73-2,8.19-2.26,12.19-3.53a31.76,31.76,0,0,0,11-5.7c2.35-2,10.06-10.18,12.3-18.26,4.72-17,.05-25.24-4.14-32.36-4.52-7.66-11.75-13.85-16.8-17.71-5.83-4.45-12.95-7-18.85-11.39,1.25.92,1.92,7.24,2.16,8.87,3.91,26.68-4.75,27.2-4,33.19,1.2,9.46-1.22,18.88-12.07,28.23a25.19,25.19,0,0,0-7.19,27.44c3.21,9.28,12.63,16.18,22.26,17.25,5.14.57,11.25-.22,15.08-4.05a10,10,0,0,0,.83-12.59" transform="translate(-209.81 -189.56)"/><path class="cls-5" d="M373.56,302.48c.25,6.14.63,12.33-.75,18.38a26.23,26.23,0,0,1-3.34,8.31,26.91,26.91,0,0,1-7.22,7.13c-5.14,3.71-10.05,7.51-13.88,12.62A30.3,30.3,0,0,0,342,365.33c-.36,6.22,1.44,12.89,6.05,17.29a.18.18,0,0,0,.26-.26,22.62,22.62,0,0,1-5.7-16.39A30.54,30.54,0,0,1,349.25,349a45.88,45.88,0,0,1,6.6-6.91c2.54-2.19,5.34-4,8-6a25.4,25.4,0,0,0,6.17-6.41,25.83,25.83,0,0,0,3.24-7.69,47.33,47.33,0,0,0,.31-19.51s0,0,0,0" transform="translate(-209.81 -189.56)"/><path class="cls-2" d="M382.34,350.23a9.35,9.35,0,0,1-3.23,3.71c-4.22,2.76-9.62,1.45-14.26,2.8-3.65,1.06-6.45,3.54-6.58,7.52-.12,3.79,1.22,8.42,4.92,10.11a.35.35,0,0,0,.3-.63c-4.33-2.57-6.29-10.75-2.05-14.27,3.48-2.89,8.37-2.3,12.55-2.86,3.35-.45,6.39-1.76,8.34-4.62a10.6,10.6,0,0,0,1-1.84,2.21,2.21,0,0,1-1,.08" transform="translate(-209.81 -189.56)"/><path class="cls-2" d="M355.16,353.27c2-2.06,4.62-2.92,7.31-3.63,3.29-.87,6.45-1.72,9.25-3.75a20.64,20.64,0,0,0,8.37-15.13.31.31,0,0,1,.62,0,20.47,20.47,0,0,1-4.7,12.37c-3.22,3.9-7.37,6-12.19,7.21-3.45.89-6.93,1.86-9.19,4.83a18.14,18.14,0,0,0-3.43,8.67,16.82,16.82,0,0,0,8,16.39s0,.05,0,0c-9.7-5-11.42-19.25-4-27" transform="translate(-209.81 -189.56)"/><path class="cls-2" d="M389.13,298.57c3.78,2.17,6.44,5.43,8.52,8.22a29.84,29.84,0,0,1,4.69,8.94,21.67,21.67,0,0,1,.91,9.13c-.36,3-1.21,6.42-4.74,8.52-.09.05-.24,0-.18-.09,4.62-5.25,4.64-12.11,2.61-18.23a30,30,0,0,0-4.57-8.58c-2.07-2.77-5.05-5.17-7.43-7.84-.07-.07.09-.14.19-.07" transform="translate(-209.81 -189.56)"/><path class="cls-2" d="M382.94,301.32a27.52,27.52,0,0,1,7.7,8.14,26.12,26.12,0,0,1,3.85,8.48,18.24,18.24,0,0,1,.1,8.34c-.62,2.7-1.76,5.71-5.43,7.31-.09,0-.23,0-.17-.09,5-4.37,5.64-10.57,4.18-16.28a26.48,26.48,0,0,0-3.77-8.14c-1.8-2.68-4.54-5.1-6.66-7.71-.06-.07.1-.12.2-.05" transform="translate(-209.81 -189.56)"/><path class="cls-6" d="M353,258.83a7.55,7.55,0,0,1,1.26-1.51c3.08-2.75,8.12-2.09,11.79.08,4.25,2.53,6.22,6.48,7.15,10.55,1,4.32.51,8.65.67,13,.18,4.71,1.54,9.31,2.76,13.95,2.27,8.6,2.81,17-2.82,24.29a29.9,29.9,0,0,1-13.72,9.76c-5.51,1.92-12.82,3-18.35.69a4.29,4.29,0,0,1-1.74-1.14,1.85,1.85,0,0,1-.3-2,2,2,0,0,1,1.74-.88,7.68,7.68,0,0,1,2,.42,11.78,11.78,0,0,0,6.63,0,11.56,11.56,0,0,0,6.24-5.24,20.32,20.32,0,0,0,2.49-7.89,21.34,21.34,0,0,0-.56-8.89c-.94-3.06-3-5.69-4.76-8.32a41.25,41.25,0,0,1-5.2-10A32,32,0,0,1,347.1,270c.74-4,2.28-8.52,5.91-11.19" transform="translate(-209.81 -189.56)"/><path class="cls-2" d="M359.23,294.71c-2.22-5.36-4.52-10.89-4.21-16.5.19-3.42,1.93-10.24,7.37-10,.15,0,.18.16.06.2-7.36,2.44-7.13,10.42-5.67,16.32,1.5,6.06,4.8,11.79,6.25,17.86,2.09,8.7,1,23.24-11,25.77-.27.06-.41-.28-.15-.35,6.86-2,10-8,11.06-13.77,1.21-6.75-1-13-3.74-19.56" transform="translate(-209.81 -189.56)"/><path class="cls-2" d="M367.89,294.72a39.07,39.07,0,0,0-2.23-5.64c-.82-1.72-2.05-3.42-2.73-5.15,0,0,0,0,.05,0,3.15,2.95,4.68,7,5.82,10.31a29.78,29.78,0,0,1,1.6,10.8,27,27,0,0,1-9.17,19.2c-.05,0-.16,0-.12-.07,4.91-5.68,7.77-11.79,8.13-18.87a31.5,31.5,0,0,0-1.35-10.57" transform="translate(-209.81 -189.56)"/><path class="cls-5" d="M354.8,297.37c1.93,5.84,2.91,12.05,1.21,18.08-.86,3-2.8,6-6.09,6.7-1.54.32-3.55,0-4.37-1.51s-.25-2.69.48-3.91a.19.19,0,0,0-.26-.26c-1.78,1-1.64,3.82-.42,5.17,1.7,1.88,4.72,1.6,6.75.47,4.81-2.66,5.74-9.38,5.47-14.37A28,28,0,0,0,355,297.29c-.05-.11-.22,0-.19.08" transform="translate(-209.81 -189.56)"/><path class="cls-5" d="M365.08,254.14a22.37,22.37,0,0,1,5.89,4,16.08,16.08,0,0,1,3.89,6.31c1.68,5.14.78,10.63,1.1,15.93s2.42,9.73,4.47,14.44c2.21,5.08,3.66,10.45,2.18,16a17,17,0,0,1-10.89,11.61c-.51.18-.29,1,.22.81a17.76,17.76,0,0,0,10.44-9.32,21,21,0,0,0,.24-15.71c-1.93-5.46-5.16-10.45-5.82-16.3-.63-5.55.45-11.26-1-16.72-1.35-5.08-5.43-9.85-10.58-11.37a.18.18,0,0,0-.13.33" transform="translate(-209.81 -189.56)"/><path class="cls-22" d="M323.1,276.33c1.47,3.65,6.31,4.74,9.59,3.1,4.25-2.14,5.51-6.74,5.45-11.17-.07-5.33-1.13-10.57-.92-15.91.12-3.06-2.14-7.51,3.08-17.82,7-13.81,20.78-.32,22,1.19,3.53,4.32,4.83,19.08,4.71,20a40.23,40.23,0,0,1-6.86,20.87,35.24,35.24,0,0,1-8.36,8.65,19.52,19.52,0,0,1-2.53,1.55c-.46.36-.92.71-1.4,1-5.5,3.91-13,6.27-19.66,4-6.23-2.11-11.25-8-10.82-14.83.22-3.44,4.51-3.72,5.71-.73" transform="translate(-209.81 -189.56)"/><path class="cls-2" d="M321.17,282.56c5.1,3.56,11.28,5.37,17,2s7.88-9.6,6.93-15.84c-.84-5.52-3.33-11-2.44-16.66a12.44,12.44,0,0,1,2.34-5.59c1-1.26,2.68-3,4.41-2.76,0,0,0,.06,0,.09-.87,1-2.17,1.42-3.08,2.41a10.5,10.5,0,0,0-2.24,4.12c-1,3.43-.33,7.09.49,10.48,1.35,5.6,3.3,11.4,1,17a15.51,15.51,0,0,1-10.54,9c-4.82,1.14-10.85-.16-14-4.18-.07-.09,0-.25.14-.17" transform="translate(-209.81 -189.56)"/><path class="cls-2" d="M332.06,289.08c4.78-.43,9.49-.52,13.83-2.85a22.77,22.77,0,0,0,8.82-8.73A28.12,28.12,0,0,0,358.33,265a32.58,32.58,0,0,0-.41-7.18c-.33-2-1.11-4.05-1.28-6.09,0,0,.06,0,.08,0,1.26,2,1.66,4.73,2,7a34.7,34.7,0,0,1,.35,7,26.57,26.57,0,0,1-3.93,12.82c-5.06,8-13.77,11.64-23.08,11.18a.31.31,0,0,1,0-.61" transform="translate(-209.81 -189.56)"/><path class="cls-5" d="M337.94,252.52c-1.43,2.7-1.7,6.23-1.72,9.24,0,3.5.76,7.07,0,10.53-.66,3-3,6.25-6.51,5.75s-4.57-5-2.22-7.44c.2-.2-.09-.47-.3-.3a4.75,4.75,0,0,0-1.32,6,5.14,5.14,0,0,0,5.79,2.54,7.52,7.52,0,0,0,5.15-5.25c1-3.1.49-6.36.27-9.54a34.27,34.27,0,0,1,.05-5.73c.19-1.94.69-3.83.85-5.77,0,0,0,0,0,0" transform="translate(-209.81 -189.56)"/><path class="cls-4" d="M312.49,256.79a4.72,4.72,0,0,1,.37-3.74c.2-.4,1.5-2.87,2-1.69a1.93,1.93,0,0,1,0,.83c0,1.71,2.15,2.19,3.41,1.59,2.51-1.19,3.31-4.48,3.34-7,0-2.18-.37-4.34-.47-6.52a23.51,23.51,0,0,1,7.52-17.81c10.16-9.57,23.26-4.72,20.85,10.16-1.8,11.14-10.21,20.29-20.25,24.95-4,1.85-14,5.07-16.64-.41a2.87,2.87,0,0,1-.15-.37" transform="translate(-209.81 -189.56)"/><path class="cls-2" d="M314.76,257.05s0-.06,0,0c3.9,2.71,9.55-.18,13.08-2.32a36.64,36.64,0,0,0,9.2-8.36c2.52-3.1,5.28-6.66,6.64-10.46A14.85,14.85,0,0,0,342.57,224c-.13-.26.24-.42.39-.2,5.63,8.26-.2,17.29-5.72,23.78a35.1,35.1,0,0,1-10.52,8.69c-3.44,1.76-8.62,3.49-12,.78" transform="translate(-209.81 -189.56)"/><path class="cls-2" d="M325.38,248.66a13.44,13.44,0,0,0,2.79-8.73c-.17-2.69-1-5.35-.6-8.06a10.87,10.87,0,0,1,7.92-8.89s0,0,0,.05a12.29,12.29,0,0,0-5.94,5c-1.55,2.61-1.63,5.4-1.18,8.34.69,4.54.9,9.1-2.7,12.55a.21.21,0,0,1-.31-.27" transform="translate(-209.81 -189.56)"/><path class="cls-2" d="M330.21,242.9c2-2.82.33-6.4,1.19-9.54a9,9,0,0,1,5.25-6,.13.13,0,0,1,.12.22,9.43,9.43,0,0,0-5.12,8.92c.11,2.3.71,4.92-1.18,6.67a.18.18,0,0,1-.26-.23" transform="translate(-209.81 -189.56)"/><path class="cls-5" d="M347.63,224.06c.19-1.27-.74-2.59-1.55-3.51a9.72,9.72,0,0,0-3.62-2.51,12.13,12.13,0,0,0-9.78.5,25.4,25.4,0,0,0-8.94,7.57,20.15,20.15,0,0,0-4.41,10.95c-.22,2.52-.1,5.05-.11,7.58a37.75,37.75,0,0,1-.2,4,5,5,0,0,1-.48,1.95,1.27,1.27,0,0,1-1,.73.86.86,0,0,1-.9-1.1c.09-.22-.26-.43-.41-.24-.72.91.2,1.95,1.21,2,1.44.13,2-1.63,2.2-2.74.71-4.66-.19-9.41.59-14.07s3.38-8.33,6.57-11.52c3-3,6.8-5.61,11.13-5.74a10.57,10.57,0,0,1,5.87,1.59A9.41,9.41,0,0,1,346,221.4c.68.83,1,1.83,1.61,2.66h0" transform="translate(-209.81 -189.56)"/><path class="cls-2" d="M309.71,228.52c3.13,2.32,7.35,2.7,11.18,2,8.3-1.61,15.17-8.21,18.14-16.13a34,34,0,0,0,.59-20.69,1.7,1.7,0,0,0-3.05-.56c-2.73,4.1-7.46,6.9-12,9.09-5.77,2.77-12.08,5.4-15.63,10.73-1.71,2.56-2.33,13.29.8,15.6" transform="translate(-209.81 -189.56)"/><path class="cls-13" d="M334.46,222.35a24.32,24.32,0,0,1-7.16,5.12,22.12,22.12,0,0,1-4,1.29c-.65.15-4.78,1.24-4.74.12,0-.41-.52-.41-.65-.09a1.15,1.15,0,0,0,.67,1.56,5.19,5.19,0,0,0,2.62-.12,26.48,26.48,0,0,0,5.26-1.39,21.1,21.1,0,0,0,8.33-6.14c.2-.24-.12-.57-.34-.35" transform="translate(-209.81 -189.56)"/><path class="cls-12" d="M314.91,220.83a2.39,2.39,0,0,0-.5.68c-.72,1.6,2.21,2.21,3.23,2.21a15.52,15.52,0,0,0,11.63-5.59,18.82,18.82,0,0,0,3.55-6.57c.25-.78,1.78-6.47.46-6.46a1.21,1.21,0,0,0-.88.62c-.35.51-.6,1.09-.94,1.62-1.69,2.68-5,3.86-7.55,5.63a56.77,56.77,0,0,0-8.94,7.8l-.06.06" transform="translate(-209.81 -189.56)"/><path class="cls-13" d="M333.75,203.9c-2.63,4.24-7,6.79-11.06,9.4-3.66,2.33-7.93,5.09-9.6,9.29-.14.36.44.59.62.26a18.84,18.84,0,0,1,4.34-5.46,52.52,52.52,0,0,1,6-4.21c3.8-2.44,7.85-5,10-9.12.09-.18-.18-.34-.28-.16" transform="translate(-209.81 -189.56)"/><path class="cls-22" d="M228.87,228.74c.83-1.72,3.83-1,3.35,1-.19,2.81,2.38,4.58,5,4.43,3.28-.19,5.71-3.09,7.29-5.68,3.35-5.5,6.68-11,12.9-13.62,5.69-2.4,12.57-1.5,16.55,3.48,3.82,4.78,2.88,11.15-1.47,15.18a16.52,16.52,0,0,1-8.92,3.95c-.69.11-1.41.19-2.14.26a35.46,35.46,0,0,1-4.32,1.09q-2.59,1-5.2,2c-2.78,1.73-5.65,3.34-9,3.78-6.83.92-12.14-3.63-13.77-9.63a6.48,6.48,0,0,1-.29-6.19" transform="translate(-209.81 -189.56)"/><path class="cls-2" d="M231.27,236a8.78,8.78,0,0,0,10.7,4.41c3.37-1,6.17-3.38,9.13-5.21a16.74,16.74,0,0,1,8.59-2.91c4.08-.07,9.78.72,10.88-4.59,0,0,0,0,.05,0,.64,3.44-3.38,5.24-6.18,5.48s-5.52-.24-8.2.6a25.33,25.33,0,0,0-6.39,3.4c-3.14,2.08-6.54,4.62-10.48,4.58a8.87,8.87,0,0,1-8.15-5.74s0-.05.05,0" transform="translate(-209.81 -189.56)"/><path class="cls-2" d="M244.12,236.8c3.84-1.79,5.68-5.15,8.38-8.19,1.84-2.08,4.58-4.33,7.54-3.7a.11.11,0,0,1,0,.21c-4.6.53-6.87,3.66-9.49,7.1-1.66,2.19-3.52,4.39-6.34,4.95-.22,0-.28-.28-.09-.37" transform="translate(-209.81 -189.56)"/><path class="cls-5" d="M253.42,241.08a16.07,16.07,0,0,0-3.37,1.68A42.55,42.55,0,0,1,246,244.6a15.92,15.92,0,0,1-8.29,1.38,11.52,11.52,0,0,1-6.58-3.52,13.89,13.89,0,0,1-3.1-6.89c-.07-.31-.53-.23-.55.07-.2,5.32,4.6,10,9.53,10.92a15.28,15.28,0,0,0,8.41-1.09,37.46,37.46,0,0,0,4-1.79c1.35-.69,3-1.39,4-2.6h0" transform="translate(-209.81 -189.56)"/><path class="cls-5" d="M313.36,215.94c1.49-.8,2.05-3,2.24-4.6a12,12,0,0,0-.79-5.75c-1.57-4-5-6.71-8.88-8.27a32.07,32.07,0,0,0-14-1.95,24.78,24.78,0,0,0-13.2,5.32c-2.15,1.6-4.19,3.33-6.36,4.89a22.41,22.41,0,0,1-3.23,2.07c-.73.35-2.09.82-2.62-.1-.28-.5-.2-1.29.43-1.44a.3.3,0,0,0-.08-.59c-1.3-.07-1.57,1.51-1.09,2.46.94,1.85,3.47.68,4.73-.07,4.18-2.52,7.63-6.08,11.8-8.61,4.83-2.93,10.29-3.51,15.82-2.93,4.9.53,10.11,2,13.55,5.77a12.36,12.36,0,0,1,3.14,6.81,10.46,10.46,0,0,1-.19,3.74c-.28,1.15-1,2.11-1.25,3.24h0" transform="translate(-209.81 -189.56)"/><path class="cls-6" d="M255.26,209.25a6,6,0,0,1,4-2.53c.55-.12,4-.73,3.25.68a2.57,2.57,0,0,1-.82.67c-1.74,1.28-.52,3.86,1.06,4.66,3.14,1.57,7.06-.18,9.6-2.09,2.21-1.67,4.06-3.76,6.16-5.55a29.78,29.78,0,0,1,23.69-6.3c17.49,2.73,22.81,19.63,6,28.78-12.56,6.85-28.26,5.54-40.73-.89-4.94-2.54-16-10.14-12.53-17,.08-.15.16-.3.25-.44" transform="translate(-209.81 -189.56)"/><path class="cls-2" d="M256.76,211.72s.06,0,.06,0c.32,6,7.6,9.42,12.5,11.3a46.59,46.59,0,0,0,15.52,2.71c5.07.12,10.78.11,15.64-1.47a18.81,18.81,0,0,0,11-10.37c.16-.33.61-.09.51.24-3.9,12.06-17.48,13.24-28.27,12.75a44.45,44.45,0,0,1-16.89-3.78c-4.43-2.07-10.2-5.92-10.08-11.38" transform="translate(-209.81 -189.56)"/><path class="cls-2" d="M273.42,215.85a17.07,17.07,0,0,0,10.93-4c2.56-2.27,4.56-5.19,7.6-6.88A13.81,13.81,0,0,1,307,206s0,.07,0,.05a15.63,15.63,0,0,0-9.63-2.05c-3.83.48-6.69,2.57-9.28,5.3-4,4.23-8.42,8-14.67,7.05a.26.26,0,0,1,0-.51" transform="translate(-209.81 -189.56)"/><path class="cls-2" d="M283,216.21c4.37-.21,6.68-4.65,10.48-6.23a11.48,11.48,0,0,1,10.14.57.16.16,0,0,1-.14.29,11.92,11.92,0,0,0-12.91,1.81c-2.22,1.89-4.37,4.52-7.59,4a.22.22,0,0,1,0-.43" transform="translate(-209.81 -189.56)"/><path class="cls-23" d="M259.08,247.53c2.87,2.82,14.31-4.49,13.86-8.26-.74-6.22-45.18-47.87-47.36-47s24.38,46.33,33.5,55.28" transform="translate(-209.81 -189.56)"/><path class="cls-24" d="M227.5,197.58l4.05-1c1.09.93,2.3,2,3.6,3.14l-5.82,1.49c-.69-1.31-1.31-2.52-1.83-3.59" transform="translate(-209.81 -189.56)"/><path class="cls-24" d="M248.2,211.78l-11.26,2.9q-1.06-1.8-2.07-3.54l10-2.56,3.36,3.2" transform="translate(-209.81 -189.56)"/><path class="cls-24" d="M262.31,225.86,246.39,230c-.75-1.14-1.5-2.31-2.25-3.49l15-3.86c1.09,1.12,2.14,2.2,3.15,3.26" transform="translate(-209.81 -189.56)"/><path class="cls-24" d="M273,238.92l-17.15,4.4c-.81-1-1.68-2.16-2.59-3.41l17.59-4.51a10.47,10.47,0,0,1,2.15,3.52" transform="translate(-209.81 -189.56)"/><path class="cls-5" d="M369,437.7a1.66,1.66,0,0,1,.32,1,1.48,1.48,0,0,1-.63,1.28,3.06,3.06,0,0,1-1.81.45h-3.05v-6.39h2.86a2.8,2.8,0,0,1,1.7.44,1.42,1.42,0,0,1,.59,1.21,1.57,1.57,0,0,1-.23.87,1.46,1.46,0,0,1-.63.55,1.68,1.68,0,0,1,.88.56m-4.26-2.89v2h1.87a1.91,1.91,0,0,0,1.08-.26.87.87,0,0,0,.38-.76.86.86,0,0,0-.38-.76,1.84,1.84,0,0,0-1.08-.26Zm3.27,4.65a.89.89,0,0,0,.39-.8c0-.71-.52-1.07-1.56-1.07h-2.1v2.13h2.1a2.2,2.2,0,0,0,1.17-.26" transform="translate(-209.81 -189.56)"/><path class="cls-25" d="M369,437.7a1.66,1.66,0,0,1,.32,1,1.48,1.48,0,0,1-.63,1.28,3.06,3.06,0,0,1-1.81.45h-3.05v-6.39h2.86a2.8,2.8,0,0,1,1.7.44,1.42,1.42,0,0,1,.59,1.21,1.57,1.57,0,0,1-.23.87,1.46,1.46,0,0,1-.63.55A1.68,1.68,0,0,1,369,437.7Zm-4.26-2.89v2h1.87a1.91,1.91,0,0,0,1.08-.26.87.87,0,0,0,.38-.76.86.86,0,0,0-.38-.76,1.84,1.84,0,0,0-1.08-.26Zm3.27,4.65a.89.89,0,0,0,.39-.8c0-.71-.52-1.07-1.56-1.07h-2.1v2.13h2.1A2.2,2.2,0,0,0,368,439.46Z" transform="translate(-209.81 -189.56)"/><path class="cls-5" d="M374.81,438.86h-3.4l-.7,1.59h-.94l2.89-6.38h.9l2.9,6.38h-.95Zm-.33-.73L373.11,435l-1.38,3.13Z" transform="translate(-209.81 -189.56)"/><path class="cls-25" d="M374.81,438.86h-3.4l-.7,1.59h-.94l2.89-6.38h.9l2.9,6.38h-.95Zm-.33-.73L373.11,435l-1.38,3.13Z" transform="translate(-209.81 -189.56)"/><path class="cls-5" d="M382.59,437.7a1.66,1.66,0,0,1,.32,1,1.48,1.48,0,0,1-.63,1.28,3.07,3.07,0,0,1-1.82.45h-3v-6.39h2.87a2.76,2.76,0,0,1,1.69.44,1.41,1.41,0,0,1,.6,1.21,1.66,1.66,0,0,1-.23.87,1.52,1.52,0,0,1-.63.55,1.68,1.68,0,0,1,.88.56m-4.26-2.89v2h1.87a1.91,1.91,0,0,0,1.08-.26.87.87,0,0,0,.38-.76.86.86,0,0,0-.38-.76,1.84,1.84,0,0,0-1.08-.26Zm3.26,4.65a.88.88,0,0,0,.4-.8c0-.71-.52-1.07-1.56-1.07h-2.1v2.13h2.1a2.14,2.14,0,0,0,1.16-.26" transform="translate(-209.81 -189.56)"/><path class="cls-25" d="M382.59,437.7a1.66,1.66,0,0,1,.32,1,1.48,1.48,0,0,1-.63,1.28,3.07,3.07,0,0,1-1.82.45h-3v-6.39h2.87a2.76,2.76,0,0,1,1.69.44,1.41,1.41,0,0,1,.6,1.21,1.66,1.66,0,0,1-.23.87,1.52,1.52,0,0,1-.63.55A1.68,1.68,0,0,1,382.59,437.7Zm-4.26-2.89v2h1.87a1.91,1.91,0,0,0,1.08-.26.87.87,0,0,0,.38-.76.86.86,0,0,0-.38-.76,1.84,1.84,0,0,0-1.08-.26Zm3.26,4.65a.88.88,0,0,0,.4-.8c0-.71-.52-1.07-1.56-1.07h-2.1v2.13h2.1A2.14,2.14,0,0,0,381.59,439.46Z" transform="translate(-209.81 -189.56)"/><polygon class="cls-5" points="176.82 248.69 176.82 250.89 175.92 250.89 175.92 248.67 173.38 244.5 174.35 244.5 176.4 247.87 178.45 244.5 179.36 244.5 176.82 248.69"/><polygon class="cls-25" points="176.82 248.69 176.82 250.89 175.92 250.89 175.92 248.67 173.38 244.5 174.35 244.5 176.4 247.87 178.45 244.5 179.36 244.5 176.82 248.69"/><path class="cls-5" d="M393,440.3a2.9,2.9,0,0,1-1.05-.57l.34-.72a2.78,2.78,0,0,0,.93.54,3.61,3.61,0,0,0,1.18.2,2.1,2.1,0,0,0,1.18-.27.83.83,0,0,0,.39-.71.73.73,0,0,0-.21-.54,1.46,1.46,0,0,0-.53-.31c-.21-.07-.51-.16-.89-.25a9,9,0,0,1-1.16-.34,2,2,0,0,1-.76-.54,1.41,1.41,0,0,1-.31-1,1.62,1.62,0,0,1,.26-.92,1.84,1.84,0,0,1,.82-.66,3.41,3.41,0,0,1,1.36-.24,4.12,4.12,0,0,1,1.11.14,3,3,0,0,1,.94.42l-.3.73a3.2,3.2,0,0,0-.86-.39,3.09,3.09,0,0,0-.89-.13,2,2,0,0,0-1.16.28.88.88,0,0,0-.39.73.7.7,0,0,0,.22.54,1.58,1.58,0,0,0,.54.32c.22.07.51.15.88.24a7.51,7.51,0,0,1,1.16.35,2,2,0,0,1,.75.52,1.41,1.41,0,0,1,.32,1,1.58,1.58,0,0,1-.28.92,1.8,1.8,0,0,1-.83.66,3.41,3.41,0,0,1-1.36.24,4.37,4.37,0,0,1-1.4-.23" transform="translate(-209.81 -189.56)"/><path class="cls-25" d="M393,440.3a2.9,2.9,0,0,1-1.05-.57l.34-.72a2.78,2.78,0,0,0,.93.54,3.61,3.61,0,0,0,1.18.2,2.1,2.1,0,0,0,1.18-.27.83.83,0,0,0,.39-.71.73.73,0,0,0-.21-.54,1.46,1.46,0,0,0-.53-.31c-.21-.07-.51-.16-.89-.25a9,9,0,0,1-1.16-.34,2,2,0,0,1-.76-.54,1.41,1.41,0,0,1-.31-1,1.62,1.62,0,0,1,.26-.92,1.84,1.84,0,0,1,.82-.66,3.41,3.41,0,0,1,1.36-.24,4.12,4.12,0,0,1,1.11.14,3,3,0,0,1,.94.42l-.3.73a3.2,3.2,0,0,0-.86-.39,3.09,3.09,0,0,0-.89-.13,2,2,0,0,0-1.16.28.88.88,0,0,0-.39.73.7.7,0,0,0,.22.54,1.58,1.58,0,0,0,.54.32c.22.07.51.15.88.24a7.51,7.51,0,0,1,1.16.35,2,2,0,0,1,.75.52,1.41,1.41,0,0,1,.32,1,1.58,1.58,0,0,1-.28.92,1.8,1.8,0,0,1-.83.66,3.41,3.41,0,0,1-1.36.24A4.37,4.37,0,0,1,393,440.3Z" transform="translate(-209.81 -189.56)"/><polygon class="cls-5" points="193.89 244.5 193.89 250.89 192.98 250.89 192.98 248.04 189.31 248.04 189.31 250.89 188.4 250.89 188.4 244.5 189.31 244.5 189.31 247.25 192.98 247.25 192.98 244.5 193.89 244.5"/><polygon class="cls-25" points="193.89 244.5 193.89 250.89 192.98 250.89 192.98 248.04 189.31 248.04 189.31 250.89 188.4 250.89 188.4 244.5 189.31 244.5 189.31 247.25 192.98 247.25 192.98 244.5 193.89 244.5"/><path class="cls-5" d="M406.76,440.1a3.12,3.12,0,0,1-1.22-1.17,3.39,3.39,0,0,1,0-3.34,3.12,3.12,0,0,1,1.22-1.17,3.81,3.81,0,0,1,3.48,0,3.09,3.09,0,0,1,1.21,1.17,3.23,3.23,0,0,1,.44,1.67,3.29,3.29,0,0,1-.44,1.68,3.14,3.14,0,0,1-1.21,1.16,3.74,3.74,0,0,1-3.48,0m3-.7a2.4,2.4,0,0,0,.88-.88,2.46,2.46,0,0,0,.32-1.26,2.4,2.4,0,0,0-.32-1.25,2.35,2.35,0,0,0-.88-.89,2.76,2.76,0,0,0-2.54,0,2.31,2.31,0,0,0-.89.89,2.41,2.41,0,0,0-.33,1.25,2.47,2.47,0,0,0,.33,1.26,2.35,2.35,0,0,0,.89.88,2.68,2.68,0,0,0,2.54,0" transform="translate(-209.81 -189.56)"/><path class="cls-25" d="M406.76,440.1a3.12,3.12,0,0,1-1.22-1.17,3.39,3.39,0,0,1,0-3.34,3.12,3.12,0,0,1,1.22-1.17,3.81,3.81,0,0,1,3.48,0,3.09,3.09,0,0,1,1.21,1.17,3.23,3.23,0,0,1,.44,1.67,3.29,3.29,0,0,1-.44,1.68,3.14,3.14,0,0,1-1.21,1.16,3.74,3.74,0,0,1-3.48,0Zm3-.7a2.4,2.4,0,0,0,.88-.88,2.46,2.46,0,0,0,.32-1.26,2.4,2.4,0,0,0-.32-1.25,2.35,2.35,0,0,0-.88-.89,2.76,2.76,0,0,0-2.54,0,2.31,2.31,0,0,0-.89.89,2.41,2.41,0,0,0-.33,1.25,2.47,2.47,0,0,0,.33,1.26,2.35,2.35,0,0,0,.89.88,2.68,2.68,0,0,0,2.54,0Z" transform="translate(-209.81 -189.56)"/><path class="cls-5" d="M417.73,434.66a2.24,2.24,0,0,1,0,3.27,3,3,0,0,1-2,.59H414.2v1.93h-.92v-6.38h2.5a3,3,0,0,1,2,.59m-.66,2.7a1.46,1.46,0,0,0,0-2.13,2,2,0,0,0-1.32-.37H414.2v2.87h1.55a2.1,2.1,0,0,0,1.32-.37" transform="translate(-209.81 -189.56)"/><path class="cls-25" d="M417.73,434.66a2.24,2.24,0,0,1,0,3.27,3,3,0,0,1-2,.59H414.2v1.93h-.92v-6.38h2.5A3,3,0,0,1,417.73,434.66Zm-.66,2.7a1.46,1.46,0,0,0,0-2.13,2,2,0,0,0-1.32-.37H414.2v2.87h1.55A2.1,2.1,0,0,0,417.07,437.36Z" transform="translate(-209.81 -189.56)"/><path class="cls-4" d="M245.36,405.22a14.7,14.7,0,0,0-.47-4,10.16,10.16,0,0,0-1.18-2.74,4.73,4.73,0,0,0-1.63-1.59,3.67,3.67,0,0,0-1.79-.51,4.43,4.43,0,0,0-2.7.84,9.09,9.09,0,0,0-1.9,1.86,13.85,13.85,0,0,0-1.49,2.71v25l4.06,1v1H219.33v-1l4.06-1V397.11l-4.06-1v-1h6.09a8.21,8.21,0,0,1,3.88.81,8.88,8.88,0,0,1,2.4,1.76,7.48,7.48,0,0,1,1.49,2.5,12.35,12.35,0,0,1,2.23-3,11.73,11.73,0,0,1,3-2.1,10,10,0,0,1,4.57-.95,14.69,14.69,0,0,1,5.34.95,13.28,13.28,0,0,1,4.15,2.5,11.7,11.7,0,0,1,2.71,3.55,9.38,9.38,0,0,1,1,4.16v21.64l4.06,1v1h-8.79q-6.09,0-6.09-6.08Z" transform="translate(-209.81 -189.56)"/><path class="cls-22" d="M273.08,395.08q6.09,0,6.09,6.08v25.7l4.05,1v1H264.29v-1l4.06-1V397.11l-4.06-1v-1ZM268,386.63a5.37,5.37,0,0,1,.47-2.2,6.09,6.09,0,0,1,3.08-3.08,5.38,5.38,0,0,1,4.4,0,6.47,6.47,0,0,1,1.82,1.25,6,6,0,0,1,1.25,1.83,5.26,5.26,0,0,1,0,4.39,6,6,0,0,1-1.25,1.83A6.08,6.08,0,0,1,276,391.9a5.38,5.38,0,0,1-4.4,0,5.84,5.84,0,0,1-1.82-1.25,6.22,6.22,0,0,1-1.26-1.83,5.36,5.36,0,0,1-.47-2.19" transform="translate(-209.81 -189.56)"/><path class="cls-26" d="M306.89,395.41a7.13,7.13,0,0,0-3.25.75,6.3,6.3,0,0,0-2.57,2.6,16.38,16.38,0,0,0-1.69,5.07,45.74,45.74,0,0,0-.6,8.15,43.64,43.64,0,0,0,.6,7.95,16,16,0,0,0,1.69,5,6.37,6.37,0,0,0,2.57,2.56,7.13,7.13,0,0,0,3.25.75,9.82,9.82,0,0,0,3.82-.75,10.1,10.1,0,0,0,3.11-2,9.62,9.62,0,0,0,2.09-2.84,7.22,7.22,0,0,0,.78-3.21h1.69a8.9,8.9,0,0,1-.91,3.92,10.43,10.43,0,0,1-2.6,3.35,13.28,13.28,0,0,1-4.06,2.33,15.21,15.21,0,0,1-5.27.88q-8.66,0-13.46-4.77T287.28,412q0-8.39,4.8-13.15t13.46-4.77a22.34,22.34,0,0,1,5.68.64,12.7,12.7,0,0,1,3.88,1.7,6.83,6.83,0,0,1,2.24,2.36,5.74,5.74,0,0,1,.71,2.74,4.77,4.77,0,0,1-5.08,5.07c-.36,0-.71,0-1,0s-.62-.06-.85-.1a3.41,3.41,0,0,1-.81-.21V396.09c-.27-.09-.59-.2-.95-.34a8.08,8.08,0,0,0-1.08-.23,7.93,7.93,0,0,0-1.35-.11" transform="translate(-209.81 -189.56)"/><path class="cls-6" d="M341,394.06a21.71,21.71,0,0,1,7.51,1.22,15.19,15.19,0,0,1,5.64,3.55,15.38,15.38,0,0,1,3.56,5.65,23.88,23.88,0,0,1,0,15,15.07,15.07,0,0,1-9.2,9.19,23.69,23.69,0,0,1-15,0,15,15,0,0,1-9.2-9.19,23.88,23.88,0,0,1,0-15,15,15,0,0,1,9.2-9.2,21.69,21.69,0,0,1,7.5-1.22m0,34.49a4.16,4.16,0,0,0,2.3-.75,6.25,6.25,0,0,0,2.07-2.6,19.9,19.9,0,0,0,1.48-5.07,57.55,57.55,0,0,0,0-16.3,19.9,19.9,0,0,0-1.48-5.07,6.32,6.32,0,0,0-2.07-2.6,3.93,3.93,0,0,0-4.59,0,6.32,6.32,0,0,0-2.07,2.6,19.5,19.5,0,0,0-1.48,5.07,57.55,57.55,0,0,0,0,16.3,19.5,19.5,0,0,0,1.48,5.07,6.25,6.25,0,0,0,2.07,2.6,4.15,4.15,0,0,0,2.29.75" transform="translate(-209.81 -189.56)"/><path class="cls-22" d="M373.15,381.55q6.09,0,6.08,6.09v39.22l4.06,1v1H364.36v-1l4.06-1V383.58l-4.06-1v-1Z" transform="translate(-209.81 -189.56)"/><path class="cls-4" d="M405.6,432.3q-8.66,0-13.45-4.77t-4.8-13.15a21.71,21.71,0,0,1,1.21-7.51,16.56,16.56,0,0,1,3.39-5.64,14,14,0,0,1,5.24-3.55,18.13,18.13,0,0,1,6.72-1.22,20,20,0,0,1,6.8,1.08,15.88,15.88,0,0,1,5.11,2.91,12.45,12.45,0,0,1,4.32,9.53,11.55,11.55,0,0,1-.1,1.66c-.07.47-.15.89-.24,1.25l-.33,1.15c-2,.41-4.08.74-6.29,1-1.9.27-4.08.51-6.56.71s-5.07.31-7.78.31a34.12,34.12,0,0,0,.61,7,13.55,13.55,0,0,0,1.69,4.46,6.48,6.48,0,0,0,2.57,2.37,7.47,7.47,0,0,0,3.25.7,9.81,9.81,0,0,0,3.82-.74,10.1,10.1,0,0,0,3.11-2A9.94,9.94,0,0,0,416,425a7.22,7.22,0,0,0,.78-3.21h1.69a8.9,8.9,0,0,1-.91,3.92,10.39,10.39,0,0,1-2.6,3.34,13.3,13.3,0,0,1-4.06,2.34,15.23,15.23,0,0,1-5.28.88m-6.76-17.92c1.53,0,2.89,0,4.06-.1s2.16-.15,3-.24a23.18,23.18,0,0,0,2.44-.34c.09-.45.2-.94.34-1.49s.17-1,.23-1.65a16.93,16.93,0,0,0,.1-1.93,22.93,22.93,0,0,0-.47-5.1,12.94,12.94,0,0,0-1.18-3.35,4.7,4.7,0,0,0-1.63-1.83,3.47,3.47,0,0,0-1.79-.54,3.13,3.13,0,0,0-1.79.65,5.23,5.23,0,0,0-1.62,2.43,23.21,23.21,0,0,0-1.18,5,59.92,59.92,0,0,0-.48,8.45" transform="translate(-209.81 -189.56)"/><g class="cls-27"><g class="cls-28"><path class="cls-29" d="M256.18,426.84V405.2a9.38,9.38,0,0,0-1-4.16,11.7,11.7,0,0,0-2.71-3.55,13.47,13.47,0,0,0-4.15-2.5,14,14,0,0,0-1.81-.56,42.1,42.1,0,0,1,.44,33,6.3,6.3,0,0,0,4.48,1.44h8.79v-1Z" transform="translate(-209.81 -189.56)"/></g></g><g class="cls-27"><g class="cls-30"><path class="cls-29" d="M274.84,392.3a5.41,5.41,0,0,0,1.3-.39,6.09,6.09,0,0,0,3.08-3.08,5.38,5.38,0,0,0,0-4.4,6.47,6.47,0,0,0-1.25-1.82,6,6,0,0,0-1.83-1.25,5.26,5.26,0,0,0-4.39,0,57,57,0,0,1,3.09,10.94" transform="translate(-209.81 -189.56)"/><path class="cls-29" d="M279.35,426.86V401.17c0-3.31-1.34-5.26-4-5.88a71.49,71.49,0,0,1,.65,9.62,64,64,0,0,1-4.38,24h11.83v-1Z" transform="translate(-209.81 -189.56)"/></g></g><g class="cls-27"><g class="cls-31"><path class="cls-29" d="M314.39,406.49a4.63,4.63,0,0,0,2.27-1.23,5,5,0,0,0,1.39-3.69,5.6,5.6,0,0,0-.72-2.73,6.87,6.87,0,0,0-2.22-2.37,12.87,12.87,0,0,0-3.89-1.69l-.33-.08a48.77,48.77,0,0,1,3.5,11.79" transform="translate(-209.81 -189.56)"/><path class="cls-29" d="M316.69,419.49a7.31,7.31,0,0,1-.77,3.21,10.22,10.22,0,0,1-1.23,1.89c-.11.89-.25,1.77-.41,2.64l.59-.47a10.32,10.32,0,0,0,2.6-3.35,8.9,8.9,0,0,0,.91-3.92Z" transform="translate(-209.81 -189.56)"/></g></g><g class="cls-27"><g class="cls-32"><path class="cls-29" d="M357.73,404.48a15,15,0,0,0-9.19-9.2,21.71,21.71,0,0,0-7.51-1.22c-.5,0-1,0-1.47.05a20.5,20.5,0,0,1,6,1.17,15,15,0,0,1,9.2,9.2,23.69,23.69,0,0,1,0,15,15,15,0,0,1-9.2,9.19,20.83,20.83,0,0,1-6,1.18c.48,0,1,0,1.47,0a21.71,21.71,0,0,0,7.51-1.22,15,15,0,0,0,9.19-9.19,23.69,23.69,0,0,0,0-15" transform="translate(-209.81 -189.56)"/></g></g><g class="cls-27"><g class="cls-33"><path class="cls-29" d="M379.24,426.86V387.64q0-6.09-6.09-6.09h-1a3.44,3.44,0,0,1,3.43,3.44v40.88a3.42,3.42,0,0,1-1.79,3h9.54v-1Z" transform="translate(-209.81 -189.56)"/></g></g><g class="cls-27"><g class="cls-34"><path class="cls-29" d="M419,404.6a12.67,12.67,0,0,0-3.21-4.29,16.06,16.06,0,0,0-5.11-2.91,19.32,19.32,0,0,0-5.46-1c6,2.71,10.37,9.77,10.71,18.16,1.21-.18,2.38-.39,3.51-.62l.33-1.15c.09-.36.17-.78.24-1.25a11.46,11.46,0,0,0,.1-1.66A12.67,12.67,0,0,0,419,404.6" transform="translate(-209.81 -189.56)"/><path class="cls-29" d="M416,424.89a9.75,9.75,0,0,1-4.07,4.28,19.22,19.22,0,0,1-2,2.43c.34-.09.67-.2,1-.32a13.28,13.28,0,0,0,4.06-2.33,10.43,10.43,0,0,0,2.6-3.35,8.9,8.9,0,0,0,.91-3.92h-1.69a7.22,7.22,0,0,1-.78,3.21" transform="translate(-209.81 -189.56)"/></g></g></svg>